<svg width="48" height="48" viewBox="0 0 48 48" fill="none" xmlns="http://www.w3.org/2000/svg">
<g clip-path="url(#clip0_1636_22414)">
<path d="M12.6015 15.2602C12.6015 15.2602 22.0377 8.29396 32.9173 9.44577C40.3743 10.2337 23.0688 20.1132 23.0688 20.1132L14.1801 17.4217L12.6015 15.2602Z" fill="#FF8800"/>
<path d="M19.1483 35.5614C18.9445 20.0988 19.5133 6.706 20.6226 5.29877C22.2036 3.29155 24.8655 3.86504 25.5931 5.29877C26.0056 6.11082 27.167 18.6096 28.0085 29.7012C28.1175 31.1277 28.2194 32.5301 28.3166 33.8795" fill="#FFE1AF"/>
<path d="M39.7912 31.1374C43.1001 31.7012 43.8942 37.094 40.9882 39.0964C37.7883 41.3012 32.3177 44 24.7114 44C11.8596 44 6.21123 40.7494 5.17067 36.2916C4.41929 33.0747 5.94339 30.347 13.4501 31.9711C20.9568 33.5952 30.8765 32.947 34.093 31.6458C35.5057 31.0771 37.7575 30.7928 39.7912 31.1374Z" fill="#00D4D3"/>
<path d="M36.8828 21.4843C39.5968 21.9903 40.1989 26.7783 37.8167 28.5783C35.1928 30.5614 30.7817 33.1566 24.5431 33.1566C16.9581 33.1566 9.27839 30.1783 8.42508 26.1687C7.8088 23.2747 9.11484 20.7735 15.2752 22.2337C21.4333 23.6964 29.5729 23.1108 32.211 21.9421C33.3677 21.4289 35.2142 21.1735 36.8828 21.4843Z" fill="#8C17FF"/>
<path d="M33.2563 9.56625C35.4417 9.46505 36.5795 13.2675 35.1312 15.3132C33.0785 18.2169 30.2958 20.3397 25.4509 21.5397C17.2663 23.5687 13.2155 22.0337 11.9308 18.8723C11.3145 17.359 11.3666 15.8506 12.931 15.012C13.7251 14.5855 14.9126 14.3349 16.6002 14.3446C21.6087 14.3735 27.8331 12.3229 29.7009 10.8458C30.3148 10.359 31.251 9.92047 32.2489 9.7036C32.5808 9.6289 32.9197 9.58312 33.2563 9.56625Z" fill="#FFB41B"/>
</g>
<defs>
<clipPath id="clip0_1636_22414">
<rect width="37.7778" height="40" fill="white" transform="translate(5 4)"/>
</clipPath>
</defs>
</svg>
