<svg width="48" height="48" viewBox="0 0 19 17" fill="none" xmlns="http://www.w3.org/2000/svg">
<path fill-rule="evenodd" clip-rule="evenodd" d="M16.7054 1.6391C14.4215 -0.6167 10.7236 -0.509281 8.33082 1.74652L1.80514 8.19165C0.0649547 9.91035 0.0649547 12.4884 1.80514 14.2071C3.54532 15.9258 6.37311 15.9258 8.00453 14.3145L13.8776 8.51391C14.8565 7.54714 14.8565 5.82843 13.7689 4.64683C12.6813 3.57264 11.1586 3.57264 10.071 4.64683L6.48187 8.29907C6.04683 8.72874 6.04683 9.37326 6.48187 9.80293C6.91692 10.2326 7.56949 10.2326 8.00453 9.80293L11.4849 6.36553C11.7024 6.15069 11.9199 6.15069 12.1375 6.36553C12.355 6.47295 12.4637 6.90262 12.2462 7.01004L6.37311 12.8107C5.50302 13.67 4.08912 13.5626 3.21903 12.7032C2.4577 11.8439 2.4577 10.6623 3.32779 9.80293L9.85348 3.3578C11.3761 1.85393 13.6601 1.85393 15.1828 3.3578C16.7054 4.86166 16.7054 7.22488 15.1828 8.72875L8.6571 15.1739C8.22205 15.6036 8.22205 16.2481 8.6571 16.6777C9.09214 17.1074 9.74471 17.1074 10.1798 16.6777L16.7054 10.2326C19.0982 7.86939 19.0982 4.00231 16.7054 1.6391Z" fill="#FF9C00"/>
</svg>
