<svg width="48" height="48" viewBox="0 0 48 48" fill="none" xmlns="http://www.w3.org/2000/svg">
<path d="M39.8922 8.35497C39.9203 7.87608 39.8622 7.39603 39.7208 6.93762C39.2509 5.68562 37.7351 5.23974 36.4172 5.00352C30.022 3.80852 23.473 3.67981 17.0358 4.6226C15.3987 4.85292 13.5667 5.28108 12.7246 6.68958C12.3197 7.37463 12.2134 8.18962 12.1336 8.98097C10.928 19.1298 12.1808 23.4173 11.7494 33.6282C11.6844 35.1489 11.6342 36.711 12.1365 38.1519C12.6389 39.5929 13.8178 40.8951 15.3278 41.087L15.3131 40.9187C16.2409 41.3941 17.3372 41.53 18.3921 41.6304C24.7216 42.2209 28.1434 42.3066 34.4876 41.8991C35.5514 41.8282 36.6565 41.7337 37.5725 41.1963C39.6853 39.9591 39.9365 37.0623 39.9365 34.6085C39.9099 23.8957 39.901 19.0796 39.8922 8.35497Z" fill="#68D3D2"/>
<path d="M36.2987 10.2042C36.3268 9.72529 36.2687 9.24524 36.1273 8.78683C35.6574 7.53483 34.1416 7.08895 32.8237 6.85273C26.4285 5.65773 19.8795 5.52902 13.4423 6.47181C11.8052 6.70213 9.97324 7.13029 9.13108 8.53879C8.72626 9.22385 8.61988 10.0388 8.5401 10.8302C7.33448 20.979 8.58736 25.2665 8.15594 35.4774C8.09093 36.9981 8.04072 38.5602 8.54305 40.0011C9.04539 41.4421 10.2244 42.7443 11.7343 42.9362L11.7196 42.7679C12.6475 43.2433 13.7437 43.3792 14.7986 43.4796C21.1281 44.0701 24.5499 44.1558 30.8941 43.7483C31.9579 43.6774 33.063 43.5829 33.979 43.0455C36.0918 41.8083 36.343 38.9115 36.343 36.4577C36.3164 25.7449 36.3076 20.9288 36.2987 10.2042Z" fill="#BEF3F3"/>
<path d="M14.8251 12.6166C14.1573 12.6166 13.4541 12.6166 12.872 12.9562C12.2898 13.2958 11.9028 14.0576 12.2189 14.6452C12.5351 15.2328 13.3743 15.3362 14.0687 15.3421L23.424 15.413C25.5988 15.4277 27.8564 15.4277 29.8362 14.5271C30.0992 14.409 30.3829 14.2318 30.4272 13.9572C30.4369 13.8161 30.4118 13.6747 30.3541 13.5455C30.2964 13.4162 30.2079 13.3031 30.0963 13.2161C28.8759 12.0349 26.9699 12.0143 25.2708 12.0733L14.8754 12.4365" fill="#007E79"/>
<path d="M14.8251 17.9317C14.1573 17.9317 13.4541 17.9317 12.872 18.2713C12.2898 18.6109 11.9028 19.3727 12.2189 19.9603C12.5351 20.5479 13.3743 20.6513 14.0687 20.6572L23.424 20.7281C25.5988 20.7428 27.8564 20.7428 29.8362 19.8422C30.0992 19.7241 30.3829 19.5469 30.4272 19.2723C30.4369 19.1311 30.4118 18.9898 30.3541 18.8605C30.2964 18.7313 30.2079 18.6182 30.0963 18.5312C28.8759 17.35 26.9699 17.3294 25.2708 17.3884L14.8754 17.7516" fill="#007E79"/>
<path d="M20.4012 32.7283C19.7847 32.1695 18.9788 31.8655 18.1466 31.8779L18.2263 29.8759C18.5155 29.894 18.793 29.9967 19.0242 30.1712C19.1941 30.3311 19.4187 30.4201 19.6521 30.4201C19.8855 30.4201 20.1101 30.3311 20.28 30.1712C20.4461 30.0051 20.5392 29.7799 20.5392 29.5452C20.5392 29.3104 20.4461 29.0853 20.28 28.9192C19.7108 28.4644 19.0202 28.1871 18.2943 28.1219L18.3741 26.1288C18.3741 25.8938 18.2807 25.6685 18.1144 25.5024C17.9482 25.3362 17.7227 25.2429 17.4876 25.2429C17.2525 25.2429 17.0271 25.3362 16.8608 25.5024C16.6946 25.6685 16.6011 25.8938 16.6011 26.1288C16.5745 26.8345 16.545 27.5432 16.5184 28.2489C16.1287 28.3413 15.7501 28.476 15.3896 28.6505C13.8442 29.4034 12.9459 31.5147 14.2076 32.935C14.7986 33.6024 15.5315 33.7264 16.2998 33.7175L16.2141 35.8997H16.1786H16.1136H16.0693C15.954 35.879 15.8387 35.8583 15.7265 35.8288L15.5344 35.7756C15.5344 35.7756 15.3778 35.7166 15.3571 35.7136C15.2801 35.6784 15.2052 35.6389 15.1325 35.5955C15.0852 35.566 15.0734 35.563 15.0705 35.566L15.0232 35.5158C14.9782 35.4762 14.9366 35.4327 14.8991 35.3859C15.0054 35.5247 14.8104 35.1467 14.8636 35.3002C14.7962 35.077 14.6453 34.8882 14.4422 34.7733C14.2391 34.6584 13.9996 34.6261 13.7733 34.6831C13.6609 34.7139 13.5557 34.7664 13.4636 34.8379C13.3716 34.9093 13.2945 34.9981 13.2369 35.0993C13.1793 35.2005 13.1422 35.3121 13.1278 35.4276C13.1133 35.5432 13.1218 35.6604 13.1527 35.7727C13.6137 37.0837 14.8725 37.5444 16.1461 37.6832L16.0722 39.5021C16.0722 39.737 16.1656 39.9624 16.3319 40.1285C16.4981 40.2946 16.7236 40.388 16.9587 40.388C17.1938 40.388 17.4193 40.2946 17.5855 40.1285C17.7518 39.9624 17.8452 39.737 17.8452 39.5021C17.8688 38.8968 17.8954 38.2944 17.9191 37.6891C19.3965 37.5001 20.8976 36.7471 21.1931 35.1526C21.2773 34.7146 21.2488 34.2623 21.1103 33.8383C20.9718 33.4143 20.7278 33.0324 20.4012 32.7283V32.7283ZM15.9688 31.9606C16.1077 31.9813 15.6585 31.872 15.7767 31.9193C15.6607 31.8842 15.5578 31.8153 15.4812 31.7214C15.4278 31.6411 15.3915 31.5505 15.3747 31.4555C15.3579 31.3605 15.361 31.263 15.3837 31.1692C15.4093 31.0167 15.4654 30.8709 15.5487 30.7405C15.632 30.6101 15.7406 30.4979 15.8683 30.4104C16.0385 30.2826 16.228 30.1829 16.4298 30.1151L16.3559 31.9813C16.2285 31.9826 16.1012 31.9757 15.9747 31.9606H15.9688ZM19.3108 35.1231C19.1382 35.3835 18.894 35.5886 18.6075 35.7136C18.408 35.8013 18.1987 35.8648 17.9841 35.9026L18.0727 33.6437C18.1998 33.6437 18.3238 33.6437 18.4479 33.6673C18.8616 33.7175 19.3877 34.0807 19.4645 34.5C19.4836 34.6085 19.4803 34.7196 19.4549 34.8268C19.4295 34.9339 19.3825 35.0347 19.3167 35.1231H19.3108Z" fill="#007E79"/>
</svg>
