<svg width="24" height="24" viewBox="0 0 24 24" fill="none" xmlns="http://www.w3.org/2000/svg">
<path d="M18.8333 3.80328H18.1667V2.81967C18.1667 2.32787 17.8333 2 17.3333 2C16.8333 2 16.5 2.32787 16.5 2.81967V3.80328H14.5833V2.81967C14.5833 2.32787 14.25 2 13.75 2C13.25 2 12.9167 2.32787 12.9167 2.81967V3.80328H11V2.81967C11 2.32787 10.6667 2 10.1667 2C9.66667 2 9.33333 2.32787 9.33333 2.81967V3.80328H7.5V2.81967C7.5 2.32787 7.16667 2 6.66667 2C6.16667 2 5.83333 2.32787 5.83333 2.81967V3.80328H5.16667C3.41667 3.80328 2 5.19672 2 6.91803C2 23.1475 2 17.8197 2 18.8852C2 20.6066 3.41667 22 5.16667 22H18.8333C20.5833 22 22 20.6066 22 18.8852V6.91803C22 6.2623 21.8333 5.68852 21.4167 5.19672C20.9167 4.29508 19.9167 3.80328 18.8333 3.80328ZM20.3333 18.8852C20.3333 19.7049 19.6667 20.3607 18.8333 20.3607H5.16667C4.33333 20.3607 3.66667 19.7049 3.66667 18.8852V9.37705H20.3333V18.8852ZM8.58333 14.7049V16.0984H8.33333C7.83333 16.0984 7.5 16.4262 7.5 16.918C7.5 17.4098 7.83333 17.7377 8.33333 17.7377H10.5833C11.0833 17.7377 11.4167 17.4098 11.4167 16.918C11.4167 16.4262 11.0833 16.0984 10.5833 16.0984H10.25V12.7377C10.25 12.4098 10.0833 12.082 9.75 12C9.41667 11.8361 9.08333 11.918 8.83333 12.1639L7.5 13.4754C7.16667 13.8033 7.16667 14.2951 7.5 14.623C7.75 14.8689 8.25 14.9508 8.58333 14.7049ZM13.9167 14.7869V16.1803H13.6667C13.1667 16.1803 12.8333 16.5082 12.8333 17C12.8333 17.4918 13.1667 17.8197 13.6667 17.8197H15.9167C16.4167 17.8197 16.75 17.4918 16.75 17C16.75 16.5082 16.4167 16.1803 15.9167 16.1803H15.5833V12.8197C15.5833 12.4918 15.4167 12.1639 15.0833 12.082C14.75 11.918 14.4167 12 14.1667 12.2459L12.8333 13.5574C12.5 13.8852 12.5 14.377 12.8333 14.7049C13.1667 14.9508 13.5833 15.0328 13.9167 14.7869Z" fill="#B9B1C4"/>
</svg>
