<svg width="926" height="400" viewBox="0 0 926 400" fill="none" xmlns="http://www.w3.org/2000/svg">
<path d="M859.419 146.29C858.774 152.249 857.632 158.655 855.943 165.557C852.319 180.205 853.709 195.599 859.817 209.353C872.677 238.253 890.256 279.716 838.614 328.527C766.066 397.052 676.835 306.48 683.787 234.33C684.432 227.726 684.978 219.831 685.674 211.042C689.845 160.144 699.478 80.695 762.342 68.728C809.416 59.7899 864.484 98.7201 859.419 146.29Z" fill="#FFB233"/>
<path d="M772.373 154.483C772.373 154.483 769.642 151.057 764.925 152.795C761.3 154.135 764.478 165.904 774.26 164.215C779.971 163.222 780.219 157.363 780.12 155.476C780.12 155.029 779.921 154.632 779.623 154.334C778.779 153.49 776.594 152.248 772.373 154.483Z" fill="#781DFF"/>
<path d="M820.887 156.916C825.654 156.271 828.037 156.867 828.285 158.406C828.534 159.945 825.405 161.832 820.639 162.478C815.872 163.123 814.878 162.18 814.68 160.641C814.432 159.151 816.12 157.612 820.887 156.916Z" fill="#FFC973"/>
<path d="M722.867 155.675C727.385 157.264 729.223 158.952 728.726 160.442C728.23 161.932 724.555 162.13 720.086 160.541C715.567 158.952 715.12 157.611 715.667 156.122C716.213 154.632 718.348 154.036 722.867 155.675Z" fill="#FFC973"/>
<path d="M853.114 74.587C850.085 73.5939 843.53 78.3608 840.402 78.5595C837.721 78.7084 838.863 77.3181 839.409 76.5732C839.608 76.2753 839.856 76.027 840.104 75.7787C843.481 72.6007 847.354 69.969 851.227 69.5221C853.362 69.2738 866.273 69.2738 873.622 68.231C880.623 67.2379 881.269 63.4641 882.163 58.2006C884.199 46.2335 862.549 51.497 854.504 54.9729C853.462 55.4198 852.518 54.1784 853.213 53.2846C856.64 49.1632 865.23 41.6155 867.564 39.0831C871.089 35.2099 882.907 24.9311 872.082 21.3559C853.313 15.1489 845.517 48.2694 840.551 47.0776C833.599 45.3893 843.084 20.7104 837.274 20.0649C831.464 19.4193 824.363 23.5904 822.774 32.6278C821.185 41.5162 823.37 55.4198 824.661 58.0019C824.86 58.3992 825.009 58.7964 824.959 59.2433C824.81 61.9744 821.285 62.7689 819.845 60.5344C817.511 56.9592 814.184 51.4474 813.936 48.2197C813.389 41.6652 804.65 39.9272 798.791 42.0624C782.106 48.1204 798.939 60.0378 806.686 65.1524C810.46 67.6848 812.198 70.3166 812.992 72.3525V72.4518C813.538 75.6794 803.756 72.2035 803.756 72.2035L807.778 81.4891L813.538 81.8367L813.489 87.0506L827.74 87.8947C828.683 89.2851 829.577 90.5265 829.676 90.6258C829.925 90.8741 837.919 92.7114 834.592 89.732C832.308 87.6465 832.358 85.6602 832.656 84.6671C832.656 84.6671 833.053 83.1278 835.883 82.9788C836.082 82.9788 836.281 82.9788 836.43 83.0285C838.168 83.3264 840.998 83.7733 845.517 84.2699C855.696 85.4616 856.143 75.5801 853.114 74.587Z" fill="#FFB233"/>
<path d="M757.277 247.985C755.539 247.687 753.851 248.928 753.602 250.666C753.156 253.546 742.777 321.028 751.07 368.201C747.842 368.946 740.245 369.493 733.839 369.542C732.052 369.542 730.612 371.032 730.661 372.819C730.661 374.607 732.101 375.997 733.889 375.997H733.939C753.851 375.799 756.185 373.167 756.929 372.273C757.674 371.379 758.022 370.287 757.873 369.195C757.873 369.145 757.873 369.095 757.823 368.996C753.255 344.963 754.049 314.375 755.589 292.973C757.227 269.635 760.008 251.808 760.008 251.659C760.256 249.872 759.015 248.233 757.277 247.985Z" fill="#FFB233"/>
<path d="M808.82 251.262C807.082 250.964 805.394 252.205 805.145 253.943C804.699 256.823 794.32 324.306 802.613 371.479C799.385 372.224 791.788 372.77 785.382 372.82C783.595 372.82 782.155 374.309 782.204 376.097C782.204 377.884 783.644 379.275 785.432 379.275H785.482C805.394 379.076 807.727 376.444 808.472 375.551C809.217 374.657 809.565 373.564 809.416 372.472C809.416 372.422 809.416 372.373 809.366 372.273C804.798 348.24 805.592 317.652 807.132 296.25C808.77 272.912 811.551 255.086 811.551 254.937C811.799 253.149 810.558 251.51 808.82 251.262Z" fill="#FFB233"/>
<path d="M905.5 216.602C904.507 208.26 894.775 200.961 876.65 194.952C863.79 190.682 851.376 188.597 850.829 188.547L849.936 193.959C868.606 197.038 898.698 206.125 900.038 217.298C901.23 227.08 880.226 237.656 867.563 243.069L869.699 248.084C895.023 237.21 906.742 226.931 905.5 216.602Z" fill="#FFB233"/>
<path d="M698.336 197.038C697.939 197.138 660.647 209.154 637.706 192.222C625.193 182.986 619.085 166.748 619.483 143.907C619.532 142.417 618.291 141.176 616.801 141.126C615.311 141.126 614.07 142.318 614.02 143.807C613.573 168.536 620.476 186.313 634.479 196.641C643.516 203.295 655.731 206.771 670.032 206.771C672.316 206.771 674.65 206.672 677.034 206.523C689.944 205.579 699.677 202.401 700.074 202.252C701.514 201.805 702.308 200.216 701.812 198.826C701.315 197.386 699.776 196.592 698.336 197.038Z" fill="#FFB233"/>
<path d="M737.167 124.094L736.968 124.293C736.571 124.69 736.422 124.392 736.025 123.995L730.861 119.228L725.15 113.666L722.767 111.333C722.37 110.935 722.072 110.737 722.469 110.339L722.717 109.992C723.114 109.595 723.859 109.495 724.256 109.893L730.463 115.553L737.415 122.306C737.763 122.704 737.515 123.697 737.167 124.094Z" fill="#1F123D"/>
<path d="M742.231 118.185L741.983 118.284C741.486 118.483 741.437 118.135 741.238 117.688L738.11 111.382L734.833 104.132L733.492 101.103C733.293 100.607 733.095 100.309 733.541 100.06L733.889 99.8121C734.386 99.6135 734.981 99.5142 735.18 100.011L738.904 107.558L742.926 116.397C743.175 116.894 742.728 117.986 742.231 118.185Z" fill="#1F123D"/>
<path d="M751.121 117.688L750.426 117.49C749.88 117.49 749.979 117.142 749.979 116.596L749.83 109.594L749.929 101.6L749.979 98.2727C749.979 97.7265 749.929 97.3789 750.476 97.3789L751.32 97.4782C751.866 97.4782 751.667 97.9251 751.667 98.4713V106.863L751.767 116.596C751.767 117.142 751.667 117.688 751.121 117.688Z" fill="#1F123D"/>
<path d="M759.512 121.611L758.767 121.015C758.32 120.717 758.569 120.469 758.867 120.022L762.392 113.964L766.663 107.211L768.45 104.43C768.748 103.983 768.897 103.635 769.344 103.933L770.288 104.579C770.734 104.877 770.337 105.175 770.039 105.622L765.769 112.871L760.605 121.065C760.307 121.512 759.959 121.909 759.512 121.611Z" fill="#1F123D"/>
<path d="M813.885 122.504L814.084 122.703C814.481 123.1 814.63 122.802 815.027 122.405L820.39 118.383L826.1 112.822L828.484 110.488C828.881 110.09 828.98 110.041 828.782 109.495C828.782 109.495 828.434 107.558 827.391 108.849L821.184 114.51L814.233 121.263C813.786 121.66 813.488 122.107 813.885 122.504Z" fill="#1F123D"/>
<path d="M800.33 115.901H800.578C801.124 115.901 801.472 115.255 801.472 114.709L801.621 107.708L801.521 99.7129L801.472 96.386C801.472 95.8398 801.521 95.4922 800.975 95.4922L800.032 95.7405C799.486 95.7405 799.684 96.1874 799.684 96.7336L799.535 105.175L799.634 114.858C799.684 115.404 799.783 115.901 800.33 115.901Z" fill="#1F123D"/>
<path d="M792.036 119.625L792.235 119.476C792.682 119.178 793.179 118.83 792.881 118.334L789.355 112.276L785.085 105.522L783.297 102.742C782.999 102.295 782.701 102.096 782.403 102.245L781.212 102.543C780.665 102.593 781.162 103.139 781.46 103.586L785.73 110.836L790.894 119.029C791.242 119.476 791.59 119.873 792.036 119.625Z" fill="#1F123D"/>
<path d="M808.621 117.936L808.869 118.036C809.366 118.234 810.111 118.483 810.309 117.986L813.438 111.68L816.715 104.43L818.056 101.401C818.503 100.557 816.914 99.5141 816.914 99.5141C816.417 99.3155 816.417 99.7624 816.169 100.259L812.445 107.807L808.422 116.645C808.224 117.241 808.125 117.738 808.621 117.936Z" fill="#1F123D"/>
<path d="M768.029 136.438C770.098 123.688 761.439 111.675 748.689 109.606C735.939 107.536 723.925 116.195 721.856 128.945C719.787 141.695 728.445 153.709 741.196 155.778C753.946 157.847 765.959 149.189 768.029 136.438Z" fill="white"/>
<path d="M743.721 147.383C750.577 147.383 756.135 141.825 756.135 134.969C756.135 128.113 750.577 122.555 743.721 122.555C736.865 122.555 731.307 128.113 731.307 134.969C731.307 141.825 736.865 147.383 743.721 147.383Z" fill="#1F123D"/>
<path d="M822.857 136.445C824.926 123.695 816.267 111.682 803.517 109.612C790.767 107.543 778.754 116.202 776.684 128.952C774.615 141.702 783.274 153.716 796.024 155.785C808.774 157.854 820.787 149.196 822.857 136.445Z" fill="white"/>
<path d="M799.733 107.062C786.326 107.062 775.353 117.39 774.21 130.449H770.437C769.294 117.34 758.271 107.062 744.913 107.062C730.762 107.062 719.291 118.582 719.291 132.684C719.291 146.836 730.811 158.306 744.913 158.306C758.321 158.306 769.294 147.978 770.437 134.918H774.21C775.353 148.028 786.376 158.306 799.733 158.306C813.885 158.306 825.356 146.786 825.356 132.684C825.406 118.532 813.885 107.062 799.733 107.062ZM744.913 153.837C733.244 153.837 723.76 144.353 723.76 132.684C723.76 121.015 733.244 111.531 744.913 111.531C756.583 111.531 766.067 121.015 766.067 132.684C766.067 144.353 756.583 153.837 744.913 153.837ZM799.733 153.837C788.064 153.837 778.58 144.353 778.58 132.684C778.58 121.015 788.064 111.531 799.733 111.531C811.403 111.531 820.887 121.015 820.887 132.684C820.887 144.353 811.452 153.837 799.733 153.837Z" fill="#370F6E"/>
<path d="M799.387 148.276C806.243 148.276 811.801 142.718 811.801 135.862C811.801 129.006 806.243 123.448 799.387 123.448C792.531 123.448 786.973 129.006 786.973 135.862C786.973 142.718 792.531 148.276 799.387 148.276Z" fill="#1F123D"/>
<path d="M811.204 69.2734C812.594 69.6707 826.249 73.9411 834.293 83.1771C834.343 83.2267 834.293 83.2764 834.244 83.326C832.506 83.9219 832.556 86.0075 832.655 86.653C832.655 86.7026 832.605 86.7523 832.556 86.7026C831.711 85.9578 826.845 81.9853 821.631 78.9563C815.871 75.5797 810.856 73.8914 811.055 73.8418C811.253 73.7921 812.644 73.8914 812.693 72.8487C812.743 71.9052 811.452 69.8693 811.154 69.3727L811.204 69.2734Z" fill="#781DFF"/>
<path d="M635.825 325.455C633.221 310.811 630.449 295.775 625.241 281.663C620.341 268.363 611.297 255.147 596.121 249.687C586.378 246.159 552.806 246.187 539.506 269.819C532.758 281.803 531.218 294.459 530.126 307.507C529.482 315.067 528.474 322.515 525.814 329.767C523.434 336.235 520.298 342.871 520.802 349.815C521.586 360.034 529.902 368.182 539.786 372.746C542.082 371.122 544.378 369.47 546.674 367.902C544.378 369.47 542.11 371.094 539.786 372.746C541.186 373.39 542.614 373.95 544.042 374.454C551.686 377.086 559.89 377.982 568.01 378.346C575.934 378.71 583.97 378.906 591.921 378.598C606.509 378.066 621.489 373.95 631.009 363.478C640.949 352.531 638.093 338.251 635.825 325.455Z" fill="#00D3D2"/>
<path d="M613.595 292.499C613.595 300.115 607.435 306.274 599.819 306.274C592.203 306.274 586.043 300.115 586.043 292.499C586.043 284.883 592.203 278.723 599.819 278.723C607.435 278.723 613.595 284.883 613.595 292.499Z" fill="#FEFEFE"/>
<path d="M604.635 290.175C604.635 294.683 600.967 298.351 596.459 298.351C591.951 298.351 588.283 294.683 588.283 290.175C588.283 285.667 591.951 281.999 596.459 281.999C600.967 281.999 604.635 285.667 604.635 290.175Z" fill="black"/>
<path d="M574.664 302.475C581.693 299.563 585.031 291.505 582.12 284.475C579.208 277.446 571.149 274.108 564.12 277.02C557.091 279.932 553.753 287.99 556.665 295.02C559.576 302.049 567.635 305.387 574.664 302.475Z" fill="#FEFEFE"/>
<path d="M574.17 287.459C574.17 291.967 570.502 295.635 565.994 295.635C561.486 295.635 557.818 291.967 557.818 287.459C557.818 282.951 561.486 279.283 565.994 279.283C570.502 279.283 574.17 282.951 574.17 287.459Z" fill="black"/>
<path d="M611.382 327.387C611.382 337.971 599.174 346.567 584.138 346.567C569.102 346.567 556.895 337.971 556.895 327.387C556.895 308.207 574.114 316.747 584.138 317.167C592.398 317.531 611.382 308.207 611.382 327.387Z" fill="#FFC96E"/>
<path d="M586.127 358.075C575.123 358.075 566.191 350.487 566.191 341.191C566.191 336.543 568.347 332.231 572.267 329.039C573.667 327.891 575.711 328.115 576.859 329.487C578.007 330.887 577.783 332.931 576.383 334.079C574.003 336.011 572.687 338.531 572.687 341.191C572.687 346.903 578.707 351.551 586.099 351.551C593.491 351.551 599.511 346.903 599.511 341.191C599.511 337.719 597.243 334.471 593.435 332.539C591.839 331.727 591.195 329.739 592.007 328.143C592.819 326.547 594.807 325.903 596.403 326.715C602.423 329.795 606.035 335.199 606.035 341.191C606.063 350.487 597.103 358.075 586.127 358.075Z" fill="#FF8232"/>
<path d="M512.038 331.307C525.275 331.307 536.006 320.576 536.006 307.339C536.006 294.102 525.275 283.371 512.038 283.371C498.801 283.371 488.07 294.102 488.07 307.339C488.07 320.576 498.801 331.307 512.038 331.307Z" fill="#FFB8A4"/>
<path d="M536.119 291.21C522.455 271.415 488.547 277.547 484.207 292.582C481.715 306.47 482.835 314.45 489.891 316.494C487.623 307.618 488.127 298.742 491.487 296.222C494.847 293.702 491.459 304.202 496.499 303.362C501.539 302.522 499.775 298.042 501.539 292.442C507.195 274.607 538.527 300.842 538.527 300.842L536.119 291.21Z" fill="#00D3D2"/>
<path d="M614.854 314.115C617.038 310.447 623.477 308.935 623.533 310.503C623.645 312.995 614.854 314.115 614.854 314.115Z" fill="white"/>
<path d="M619.613 320.499C622.777 318.399 628.125 320.303 627.509 321.675C626.557 323.887 619.613 320.499 619.613 320.499Z" fill="white"/>
<path d="M114.516 124.052C133.3 128.896 155.474 128.95 172.859 120.176C136.691 91.3816 104.935 92.4042 81.3613 107.044C89.9191 115.978 102.621 120.446 114.516 124.052Z" fill="black"/>
<path d="M176.788 123.406C175.496 122.276 174.204 121.253 172.913 120.23C155.528 129.003 133.299 128.896 114.569 124.105C102.675 120.499 89.9725 116.032 81.4148 107.098C78.4546 108.928 75.6558 110.973 72.9647 113.18C75.0638 132.34 71.2424 152.416 58.3251 166.948C55.9031 169.854 53.3196 172.545 50.6823 175.237C60.155 202.417 59.3477 247.735 28.992 303.118C-19.2865 391.064 140.296 394.723 188.521 351.935C236.799 309.092 251.654 203.332 176.788 123.406Z" fill="#073E8A"/>
<path d="M72.9636 113.126C63.9215 120.607 56.3864 130.188 50.735 140.575C44.2764 152.47 46.4831 163.181 50.6812 175.129C53.3185 172.492 55.902 169.747 58.324 166.841C71.2413 152.362 75.0627 132.233 72.9636 113.126Z" fill="black"/>
<path d="M119.575 201.555C135.033 201.555 147.563 189.025 147.563 173.568C147.563 158.111 135.033 145.58 119.575 145.58C104.118 145.58 91.5879 158.111 91.5879 173.568C91.5879 189.025 104.118 201.555 119.575 201.555Z" fill="white"/>
<path d="M200.523 160.059C205.798 174.322 199.985 189.015 187.552 192.89C175.119 196.766 160.856 188.316 155.582 174.053C150.307 159.79 156.12 145.096 168.553 141.221C180.932 137.346 195.249 145.796 200.523 160.059Z" fill="white"/>
<path d="M132.654 186.432C139.699 186.432 145.41 180.721 145.41 173.676C145.41 166.631 139.699 160.92 132.654 160.92C125.609 160.92 119.898 166.631 119.898 173.676C119.898 180.721 125.609 186.432 132.654 186.432Z" fill="black"/>
<path d="M198.531 168.348C198.531 175.398 192.826 181.104 185.775 181.104C178.725 181.104 173.02 175.398 173.02 168.348C173.02 161.297 178.725 155.592 185.775 155.592C192.826 155.592 198.531 161.297 198.531 168.348Z" fill="black"/>
<path d="M144.871 224.484C146.701 227.336 149.123 229.435 151.76 230.727C154.397 232.073 157.303 232.611 160.102 232.611C164.3 232.611 168.445 231.373 171.889 229.381C173.612 228.359 175.172 227.175 176.464 225.775C177.756 224.376 178.832 222.815 179.532 221.093C180.016 219.909 179.424 218.563 178.24 218.133C177.056 217.702 175.711 218.24 175.28 219.424C174.85 220.501 174.15 221.577 173.181 222.6C171.728 224.161 169.683 225.506 167.422 226.475C165.162 227.444 162.632 227.982 160.156 227.982C157.949 227.982 155.796 227.552 153.859 226.583C151.921 225.614 150.199 224.161 148.746 221.954C148.046 220.878 146.647 220.608 145.57 221.254C144.44 222.008 144.171 223.407 144.871 224.484Z" fill="black"/>
<path d="M320.73 363.778C320.73 367.126 318.001 369.855 314.653 369.855C311.305 369.855 308.576 367.126 308.576 363.778C308.576 360.43 311.305 357.701 314.653 357.701C318.001 357.701 320.73 360.43 320.73 363.778Z" fill="#614B2C"/>
<path d="M426.144 363.123C426.144 366.47 423.415 369.199 420.067 369.199C416.719 369.199 413.99 366.47 413.99 363.123C413.99 359.775 416.719 357.046 420.067 357.046C423.415 357.046 426.144 359.775 426.144 363.123Z" fill="#614B2C"/>
<path d="M324.258 170.668C322.475 170.414 319.6 172.924 318.581 174.125C308.72 185.696 298.859 197.268 288.998 208.803C288.089 209.858 287.033 211.386 288.962 211.677C290.745 211.932 293.62 209.421 294.638 208.22C304.499 196.649 314.361 185.078 324.222 173.543C325.095 172.488 326.186 170.96 324.258 170.668Z" fill="#125594"/>
<path d="M296.931 179.657C295.476 178.856 292.346 181.512 291.473 182.276C276.663 194.466 261.89 206.692 247.08 218.882C246.316 219.501 244.096 221.684 245.588 222.521C247.044 223.322 250.173 220.665 251.046 219.901C265.856 207.711 280.629 195.485 295.439 183.295C296.167 182.677 298.423 180.493 296.931 179.657Z" fill="#125594"/>
<path d="M427.6 275.065C424.725 257.089 421.705 238.641 415.992 221.284C410.607 204.946 400.709 188.717 384.08 182.022C373.382 177.692 336.594 177.692 322.003 206.729C314.616 221.43 312.906 237.003 311.705 253.014C311.014 262.293 309.886 271.463 306.975 280.341C304.391 288.274 300.898 296.424 301.48 304.939C302.317 317.493 311.451 327.499 322.294 333.103C324.841 331.102 327.316 329.064 329.826 327.172C327.316 329.1 324.805 331.102 322.294 333.103C323.822 333.904 325.387 334.595 326.952 335.214C335.321 338.452 344.309 339.544 353.223 339.98C361.92 340.417 370.726 340.672 379.423 340.308C395.433 339.653 411.807 334.595 422.251 321.714C433.203 308.323 430.074 290.784 427.6 275.065Z" fill="#B98CFF"/>
<path d="M366.898 241.15C369.327 230.863 362.957 220.554 352.67 218.125C342.382 215.696 332.074 222.066 329.644 232.354C327.215 242.641 333.586 252.95 343.873 255.379C354.16 257.808 364.469 251.438 366.898 241.15Z" fill="#FEFEFE"/>
<path d="M390.811 251.522C400.156 251.522 407.731 243.947 407.731 234.602C407.731 225.257 400.156 217.682 390.811 217.682C381.466 217.682 373.891 225.257 373.891 234.602C373.891 243.947 381.466 251.522 390.811 251.522Z" fill="#FEFEFE"/>
<path d="M364.758 235.657C364.758 241.807 359.773 246.828 353.587 246.828C347.438 246.828 342.416 241.843 342.416 235.657C342.416 229.471 347.401 224.486 353.587 224.486C359.773 224.486 364.758 229.508 364.758 235.657Z" fill="black"/>
<path d="M404.639 233.073C404.639 238.604 400.163 243.116 394.596 243.116C389.065 243.116 384.553 238.641 384.553 233.073C384.553 227.542 389.028 223.03 394.596 223.03C400.163 223.067 404.639 227.542 404.639 233.073Z" fill="black"/>
<path d="M330.917 137.592C328.042 136.683 325.022 136.137 321.929 136.028C319.273 135.918 316.653 136.137 314.033 136.61C319.164 140.212 323.64 144.724 328.152 149.2C330.226 145.561 331.026 141.559 330.917 137.592Z" fill="#125594"/>
<path d="M351.004 153.311C346.42 145.815 339.215 140.175 330.918 137.592C330.955 139.193 330.846 140.794 330.591 142.395C330.009 145.67 326.006 147.016 323.605 144.687C320.584 141.776 317.455 139.011 314.035 136.609C308.831 137.555 303.773 139.593 299.261 142.431C307.485 142.686 315.345 146.07 319.784 153.057C322.367 156.295 318.51 163.391 313.343 160.152C306.903 156.295 299.152 155.64 292.057 155.64C289.364 155.895 286.926 156.986 284.815 158.587C281.359 166.156 280.631 174.925 284.051 182.749C286.271 187.879 290.528 191.627 296.387 190.536C303.191 189.299 309.632 184.168 315.49 180.747C322.404 176.745 329.39 172.815 336.195 168.594C351.223 159.206 351.732 154.476 351.004 153.311Z" fill="#307FC4"/>
<path d="M299.26 142.396C295.731 144.652 292.565 147.381 289.909 150.51C287.871 152.912 286.124 155.641 284.814 158.515C286.925 156.914 289.363 155.859 292.056 155.568C299.151 155.568 306.902 156.223 313.342 160.08C318.509 163.318 322.366 156.223 319.783 152.984C315.344 146.071 307.484 142.687 299.26 142.396Z" fill="#125594"/>
<path d="M285.287 356.791C338.813 363.231 390.374 364.541 444.556 354.207C446.884 353.625 449.14 352.824 451.36 351.806C454.562 347.912 456.09 343.218 453.398 338.488C450.669 333.685 444.446 334.303 439.898 335.468C433.566 337.069 427.381 339.179 421.049 340.707C407.695 343.91 394.05 345.947 380.331 346.893C350.239 349.004 319.892 345.656 290.964 337.178L290.891 337.141C290.527 336.996 290.163 336.923 289.763 336.814C289.508 336.741 289.29 336.668 289.035 336.596C288.708 336.486 288.307 336.523 287.871 336.632C283.65 336.741 279.392 339.798 276.736 342.782C274.698 345.038 273.57 347.73 273.57 350.423C276.736 353.807 280.848 355.917 285.287 356.791Z" fill="#C1A886"/>
<path d="M444.557 354.208C390.376 364.542 338.814 363.232 285.288 356.791C280.849 355.918 276.737 353.808 273.535 350.46C273.535 352.316 274.045 354.172 275.173 355.954C278.302 360.976 284.197 362.977 289.8 363.487C296.496 364.142 303.337 363.814 310.032 363.851C339.542 364.033 369.016 364.142 398.526 363.268C405.804 363.05 413.045 362.795 420.323 362.431C426.363 362.14 432.658 362.213 438.444 360.43C442.592 359.157 447.941 355.954 451.361 351.806C449.142 352.825 446.886 353.626 444.557 354.208Z" fill="#977143"/>
<path d="M309.849 373.42C309.849 376.768 307.12 379.497 303.772 379.497C300.424 379.497 297.695 376.768 297.695 373.42C297.695 370.073 300.424 367.344 303.772 367.344C307.12 367.344 309.849 370.073 309.849 373.42Z" fill="#977143"/>
<path d="M436.55 373.42C436.55 376.768 433.821 379.497 430.473 379.497C427.126 379.497 424.396 376.768 424.396 373.42C424.396 370.073 427.126 367.344 430.473 367.344C433.857 367.344 436.55 370.073 436.55 373.42Z" fill="#977143"/>
<path d="M360.501 296.278C357.045 302.319 358.1 305.921 361.557 306.358C365.013 306.794 366.214 299.59 366.214 299.59L360.501 296.278Z" fill="white"/>
<path d="M370.18 297.771C368.288 304.466 370.18 307.704 373.637 307.304C377.094 306.904 376.512 299.59 376.512 299.59L370.18 297.771Z" fill="white"/>
<path d="M350.239 291.221C350.93 292.567 352.058 293.805 353.441 294.896C355.515 296.57 358.244 297.989 361.374 299.008C364.467 300.027 367.96 300.645 371.526 300.645C374.801 300.645 378.148 300.1 381.314 298.862C384.48 297.589 387.464 295.588 389.938 292.713C390.484 292.058 390.411 291.076 389.756 290.53C389.101 289.984 388.118 290.057 387.573 290.712C385.426 293.222 382.915 294.896 380.15 296.024C377.421 297.116 374.473 297.589 371.526 297.589C367.268 297.589 363.047 296.57 359.7 295.042C358.026 294.278 356.57 293.404 355.406 292.495C354.278 291.585 353.441 290.639 353.041 289.838C352.641 289.074 351.695 288.783 350.93 289.183C350.13 289.511 349.839 290.457 350.239 291.221Z" fill="black"/>
<path d="M250.247 305.958C238.566 298.717 230.779 317.638 242.46 322.66C236.347 330.993 251.92 338.234 255.814 329.319C267.494 338.234 276.955 320.404 269.168 315.964C278.047 310.397 256.905 292.604 250.247 305.958Z" fill="#D9D9D9"/>
<path d="M178.709 333.358C172.086 329.246 167.647 339.98 174.269 342.855C170.776 347.585 179.655 351.697 181.838 346.639C188.46 351.697 193.846 341.581 189.406 339.07C194.501 335.905 182.493 325.789 178.709 333.358Z" fill="#D9D9D9"/>
<rect x="0.5" y="0.5" width="924.589" height="398.497" rx="4.5" stroke="#7B61FF" stroke-dasharray="10 5"/>
</svg>
