<svg width="162" height="105" viewBox="0 0 162 105" fill="none" xmlns="http://www.w3.org/2000/svg">
<g clip-path="url(#clip0_781_2524)">
<path d="M57.8399 1.22349C6.86264 -9.7905 -17.4006 55.8039 14.2151 80.7689C11.2741 85.1745 8.57822 89.5801 5.63722 93.9857C5.39214 94.2305 5.63722 94.72 6.12739 94.4752C9.80363 93.741 13.4799 92.5172 16.911 91.2934C21.8127 89.5801 26.4693 89.8249 31.1259 88.3563C32.5964 88.6011 34.0669 89.0906 35.5374 89.0906L31.8611 88.1116C109.307 106.713 139.698 19.8249 57.8399 1.22349Z" fill="#8C17FF"/>
<path d="M103.67 13.4616C102.935 13.7064 102.445 14.6854 103.18 15.4197C104.405 16.6435 105.631 18.112 106.856 19.3358C109.797 23.0071 112.003 26.6784 113.719 30.8393C115.924 36.2239 116.905 41.6085 116.905 47.2379C116.905 52.133 116.169 57.0281 114.454 61.6784C112.738 66.084 110.287 70.4896 107.346 74.4057C101.219 82.4826 92.3963 89.091 81.1225 93.0071C80.6323 93.2519 79.897 93.4966 79.4069 93.4966C78.4265 93.7414 78.4265 94.9651 79.1618 95.4547C91.661 101.329 108.327 103.776 128.178 99.8602L124.257 100.595C125.973 100.35 127.688 100.105 129.404 99.8602C129.649 99.8602 129.649 99.8602 129.894 99.8602C133.815 100.839 137.982 100.839 142.393 102.308C145.334 103.287 148.52 104.266 151.461 105C152.442 105.245 153.177 104.266 152.687 103.287C150.726 100.105 148.52 96.9232 146.56 93.7414C146.315 93.2519 146.315 92.7623 146.805 92.2728C179.401 68.2868 156.363 4.16095 103.67 13.4616Z" fill="#D5C6FF"/>
</g>
<defs>
<clipPath id="clip0_781_2524">
<rect width="162" height="105" fill="white"/>
</clipPath>
</defs>
</svg>
