<svg width="48" height="48" viewBox="0 0 48 48" fill="none" xmlns="http://www.w3.org/2000/svg">
<g clip-path="url(#clip0_1169_16298)">
<path d="M7.48286 13.8647C4.52772 17.5612 3.26123 22.6306 4.31664 27.2776C5.37205 31.9245 8.43273 36.149 12.6544 38.3669C16.9815 40.6904 22.153 40.9016 27.1135 40.3736C30.7019 39.9511 34.5013 39.1062 37.3509 36.8883C39.7784 34.9873 41.3615 32.2414 42.5224 29.3898C44.6333 24.1092 44.9499 17.5612 41.2559 13.231C39.2507 10.9075 36.5066 9.53458 33.5515 8.58406C25.9525 6.15497 17.1926 6.36619 10.438 10.5907" fill="#A4F3F3"/>
<path d="M17.7204 20.5184C17.1927 20.0959 16.5594 19.6735 15.8206 19.6735C15.0818 19.5678 14.2375 19.8847 14.0264 20.5184C13.9209 21.0464 14.132 21.4689 14.343 21.9969C16.0317 25.2709 17.7204 28.5449 19.3035 31.9246C19.409 32.1358 19.5146 32.347 19.8312 32.4526C20.0423 32.5582 20.2533 32.4526 20.4644 32.4526C22.8919 31.9246 24.6861 30.1291 26.3747 28.4393C29.3299 25.2709 31.7573 21.6801 33.7626 17.9836C34.0792 17.4556 34.3958 16.7163 34.0792 16.1882C33.7626 15.5545 32.8127 15.3433 32.0739 15.3433C30.7019 15.4489 29.5409 16.2938 28.6966 17.2444C27.8523 18.1949 27.3246 19.3566 26.6913 20.4127C25.2138 23.0531 23.314 25.5878 21.0977 27.8056C20.9921 26.0102 20.2533 24.3204 19.5146 22.6306C19.0924 21.5745 18.8813 21.7857 18.037 20.7296" fill="#007F7A"/>
</g>
<defs>
<clipPath id="clip0_1169_16298">
<rect width="40" height="33.5849" fill="white" transform="translate(4 7)"/>
</clipPath>
</defs>
</svg>
