<svg width="48" height="48" viewBox="0 0 48 48" fill="none" xmlns="http://www.w3.org/2000/svg">
<path fill-rule="evenodd" clip-rule="evenodd" d="M27.0446 9.26191C24.62 9.01448 22.075 8.86478 19.7112 8.78226C19.5963 7.26898 19.2161 5.36114 18.0943 4.34319C16.551 2.94272 15.5526 6.11448 15.3499 8.69788C15.1962 8.69734 15.0447 8.69707 14.8957 8.69707C9.267 8.69707 7.10326 13.312 6.4224 16.3003C5.74153 19.2887 5.99047 26.7827 6.42236 33.3604C6.91415 40.8503 12.9665 41.9851 12.9665 41.9851C12.9665 41.9851 21.5154 44.4892 30.1401 43.9142C38.7647 43.3393 39.559 36.1975 39.559 36.1975C39.559 36.1975 41.7152 26.9374 40.9586 20.9153C39.918 12.6315 37.8947 11.5789 34.6037 10.5884C33.683 10.3114 32.6271 10.0723 31.4819 9.86669C31.4712 8.32901 31.2364 5.62766 29.8209 4.34319C28.1629 2.83865 27.1338 6.61108 27.0446 9.26191Z" fill="#BA8DFE"/>
<path d="M10.0891 32.5342C10.629 37.3188 14.3366 38.5749 16.1229 38.6049C20.238 39.2644 29.151 40.4396 31.8821 39.864C35.2959 39.1445 35.7326 37.121 36.8044 34.243C37.6618 31.9406 37.6115 24.0203 37.4792 20.3479H9.3349C9.36136 22.4164 9.54926 27.7496 10.0891 32.5342Z" fill="#F3EDFA"/>
<path d="M14.2859 28.8969C15.1199 29.8688 16.3428 28.8686 16.7936 28.1906C17.2599 27.4892 17.5543 25.9586 17.5543 25.9586L18.1741 33.5869C17.5355 33.5869 15.3847 33.6727 15.3847 34.9713C15.3847 36.0449 18.531 35.9601 20.5127 35.9036L20.5172 35.9033C21.5799 35.8184 23.6455 35.6534 23.4429 34.5475C23.24 33.44 21.8839 33.3609 20.9917 33.5021C20.8977 32.8994 21.2451 31.1007 20.5127 25.9586C19.7802 20.8165 16.5682 22.9073 15.8074 23.8113C14.5894 25.2587 13.4519 27.925 14.2859 28.8969Z" fill="#BA8DFE"/>
<path d="M23.7596 28.8969C24.5936 29.8688 25.8165 28.8686 26.2673 28.1906C26.7336 27.4892 27.0279 25.9586 27.0279 25.9586L27.6478 33.5869C27.0092 33.5869 24.8584 33.6727 24.8584 34.9713C24.8584 36.0449 28.0047 35.9601 29.9864 35.9036L29.9909 35.9033C31.0536 35.8184 33.1192 35.6534 32.9166 34.5475C32.7137 33.44 31.3576 33.3609 30.4653 33.5021C30.3714 32.8994 30.7188 31.1007 29.9864 25.9586C29.2539 20.8165 26.0419 22.9073 25.2811 23.8113C24.0631 25.2587 22.9256 27.925 23.7596 28.8969Z" fill="#BA8DFE"/>
</svg>
