<svg width="48" height="48" viewBox="0 0 48 48" fill="none" xmlns="http://www.w3.org/2000/svg">
<path d="M26.5301 24.9836C26.0169 21.7741 25.4776 18.4801 24.4576 15.381C23.496 12.4639 21.7288 9.56622 18.7597 8.37077C16.8496 7.59762 10.2811 7.59762 7.6758 12.7822C6.35691 15.407 6.05155 18.1878 5.83715 21.0464C5.7137 22.7032 5.5123 24.3404 4.99254 25.9257C4.53125 27.342 3.90753 28.7974 4.01149 30.3177C4.16092 32.5591 5.79167 34.3458 7.72778 35.3464C8.18257 34.989 8.62437 34.6252 9.07266 34.2873C8.62437 34.6317 8.17607 34.989 7.72778 35.3464C8.00065 35.4893 8.28002 35.6127 8.55939 35.7232C10.0537 36.3014 11.6585 36.4963 13.2502 36.5743C14.803 36.6523 16.3753 36.6977 17.9281 36.6328C20.7868 36.5158 23.7104 35.6127 25.5751 33.3128C27.5307 30.9219 26.9719 27.7903 26.5301 24.9836Z" fill="#B98CFF"/>
<path d="M15.6918 18.9282C16.1255 17.0914 14.9881 15.2507 13.1513 14.817C11.3144 14.3833 9.47381 15.5207 9.04009 17.3575C8.60636 19.1944 9.74379 21.035 11.5806 21.4687C13.4174 21.9024 15.258 20.765 15.6918 18.9282Z" fill="#FEFEFE"/>
<path d="M19.9616 20.78C21.6301 20.78 22.9827 19.4274 22.9827 17.7589C22.9827 16.0904 21.6301 14.7378 19.9616 14.7378C18.2931 14.7378 16.9405 16.0904 16.9405 17.7589C16.9405 19.4274 18.2931 20.78 19.9616 20.78Z" fill="#FEFEFE"/>
<path d="M15.3098 17.9474C15.3098 19.0454 14.4197 19.942 13.3152 19.942C12.2172 19.942 11.3206 19.0519 11.3206 17.9474C11.3206 16.8429 12.2107 15.9529 13.3152 15.9529C14.4197 15.9529 15.3098 16.8494 15.3098 17.9474Z" fill="black"/>
<path d="M22.4305 17.486C22.4305 18.4736 21.6314 19.2792 20.6374 19.2792C19.6498 19.2792 18.8442 18.4801 18.8442 17.486C18.8442 16.4985 19.6433 15.6929 20.6374 15.6929C21.6314 15.6994 22.4305 16.4985 22.4305 17.486Z" fill="black"/>
<path d="M14.5496 28.7714C13.9324 29.8499 14.1208 30.4931 14.738 30.5711C15.3552 30.649 15.5696 29.3626 15.5696 29.3626L14.5496 28.7714Z" fill="white"/>
<path d="M16.2779 29.0378C15.94 30.2332 16.2779 30.8115 16.8951 30.74C17.5123 30.6685 17.4083 29.3626 17.4083 29.3626L16.2779 29.0378Z" fill="white"/>
<path d="M12.7175 27.8683C12.8409 28.1087 13.0423 28.3296 13.2892 28.5245C13.6595 28.8234 14.1468 29.0767 14.7056 29.2587C15.2578 29.4406 15.8815 29.551 16.5182 29.551C17.103 29.551 17.7007 29.4536 18.2659 29.2327C18.8312 29.0053 19.3639 28.6479 19.8057 28.1347C19.9032 28.0177 19.8902 27.8423 19.7732 27.7448C19.6563 27.6474 19.4809 27.6604 19.3834 27.7773C19.0001 28.2256 18.5518 28.5245 18.058 28.7259C17.5707 28.9208 17.0445 29.0053 16.5182 29.0053C15.7581 29.0053 15.0044 28.8234 14.4067 28.5505C14.1078 28.414 13.848 28.2581 13.6401 28.0957C13.4386 27.9333 13.2892 27.7643 13.2178 27.6214C13.1463 27.485 12.9774 27.433 12.8409 27.5045C12.698 27.5629 12.646 27.7319 12.7175 27.8683Z" fill="black"/>
<path d="M43.6071 30.2214C43.1422 27.6067 42.6472 24.9221 41.7174 22.4024C40.8425 20.0277 39.2277 17.668 36.518 16.6931C34.7782 16.0632 28.784 16.0682 26.4093 20.2876C25.2044 22.4274 24.9295 24.6871 24.7345 27.0168C24.6195 28.3666 24.4395 29.6965 23.9646 30.9913C23.5396 32.1462 22.9797 33.331 23.0697 34.5709C23.2097 36.3956 24.6945 37.8504 26.4593 38.6653C26.8692 38.3754 27.2792 38.0804 27.6891 37.8005C27.2792 38.0804 26.8742 38.3704 26.4593 38.6653C26.7092 38.7803 26.9642 38.8803 27.2192 38.9703C28.584 39.4402 30.0488 39.6002 31.4986 39.6652C32.9135 39.7302 34.3483 39.7652 35.7681 39.7102C38.3728 39.6152 41.0474 38.8803 42.7472 37.0106C44.522 35.0558 44.0121 32.5061 43.6071 30.2214Z" fill="#00D3D2"/>
<path d="M39.6376 24.3372C39.6376 25.697 38.5377 26.7969 37.1779 26.7969C35.8181 26.7969 34.7182 25.697 34.7182 24.3372C34.7182 22.9774 35.8181 21.8775 37.1779 21.8775C38.5377 21.8775 39.6376 22.9774 39.6376 24.3372Z" fill="#FEFEFE"/>
<path d="M38.0378 23.9222C38.0378 24.7271 37.3829 25.382 36.578 25.382C35.7731 25.382 35.1182 24.7271 35.1182 23.9222C35.1182 23.1173 35.7731 22.4624 36.578 22.4624C37.3829 22.4624 38.0378 23.1173 38.0378 23.9222Z" fill="black"/>
<path d="M32.6865 26.1184C33.9415 25.5985 34.5375 24.1596 34.0177 22.9046C33.4978 21.6495 32.0589 21.0535 30.8038 21.5734C29.5487 22.0933 28.9528 23.5321 29.4726 24.7872C29.9925 26.0423 31.4314 26.6383 32.6865 26.1184Z" fill="#FEFEFE"/>
<path d="M32.5985 23.4373C32.5985 24.2422 31.9436 24.8971 31.1387 24.8971C30.3338 24.8971 29.6788 24.2422 29.6788 23.4373C29.6788 22.6324 30.3338 21.9774 31.1387 21.9774C31.9436 21.9774 32.5985 22.6324 32.5985 23.4373Z" fill="black"/>
<path d="M39.2426 30.5664C39.2426 32.4562 37.0629 33.991 34.3782 33.991C31.6936 33.991 29.5139 32.4562 29.5139 30.5664C29.5139 27.1418 32.5885 28.6666 34.3782 28.7416C35.8531 28.8066 39.2426 27.1418 39.2426 30.5664Z" fill="#FFC96E"/>
<path d="M34.7332 36.0457C32.7684 36.0457 31.1736 34.6909 31.1736 33.0311C31.1736 32.2012 31.5586 31.4313 32.2585 30.8613C32.5085 30.6564 32.8734 30.6964 33.0784 30.9413C33.2834 31.1913 33.2434 31.5562 32.9934 31.7612C32.5685 32.1062 32.3335 32.5561 32.3335 33.0311C32.3335 34.0509 33.4084 34.8808 34.7282 34.8808C36.048 34.8808 37.1229 34.0509 37.1229 33.0311C37.1229 32.4111 36.718 31.8312 36.038 31.4863C35.7531 31.3413 35.6381 30.9863 35.7831 30.7014C35.9281 30.4164 36.283 30.3014 36.568 30.4464C37.6428 30.9963 38.2878 31.9612 38.2878 33.0311C38.2928 34.6909 36.693 36.0457 34.7332 36.0457Z" fill="#FF8232"/>
<path d="M39.8626 28.1967C40.2526 27.5418 41.4024 27.2718 41.4124 27.5518C41.4324 27.9967 39.8626 28.1967 39.8626 28.1967Z" fill="white"/>
<path d="M40.7125 29.3365C41.2774 28.9615 42.2323 29.3015 42.1223 29.5465C41.9523 29.9414 40.7125 29.3365 40.7125 29.3365Z" fill="white"/>
</svg>
