<svg width="48" height="48" viewBox="0 0 48 48" fill="none" xmlns="http://www.w3.org/2000/svg">
<path d="M23.3402 27.7981C23.3402 27.4584 23.3402 27.1187 23.2279 26.7791C22.8909 25.8733 21.8801 25.6469 20.9815 25.4204C16.6011 24.6279 12.1084 24.5147 7.72797 25.194C6.60479 25.3072 5.36929 25.6469 4.8077 26.6659C4.58306 27.1187 4.47074 27.6848 4.35843 28.251C3.5722 35.2707 4.35843 31.3079 4.13379 38.3276C4.13379 39.3466 4.02147 40.4788 4.35843 41.4978C4.69538 42.5168 5.48161 43.4226 6.49247 43.5358V43.4226C7.16638 43.7622 7.84029 43.8755 8.62652 43.8755C13.0069 44.3283 15.2533 44.3283 19.6337 44.1019C20.3076 44.1019 21.0938 43.9887 21.7678 43.649C23.2279 42.7432 23.3402 40.8185 23.3402 39.1202C23.3402 31.6476 23.3402 35.2707 23.3402 27.7981Z" fill="#00D4D3"/>
<path d="M40.9741 23.4957C41.311 23.4957 41.648 23.4957 41.985 23.3824C42.8835 23.0428 43.1081 22.0238 43.3328 21.118C44.119 16.7024 44.2313 12.1736 43.5574 7.75794C43.4451 6.62573 43.1081 5.3803 42.0973 4.81419C41.648 4.58775 41.0864 4.47453 40.5248 4.36131C33.5611 3.56876 37.4922 4.36131 30.5285 4.13486C29.5176 4.13486 28.3944 4.02164 27.3836 4.36131C26.3727 4.70097 25.4742 5.49352 25.3619 6.51251H25.4742C25.1372 7.19183 25.0249 7.87116 25.0249 8.66371C24.5756 13.0793 24.5756 15.3437 24.8003 19.7594C24.8003 20.4387 24.9126 21.2312 25.2495 21.9106C26.1481 23.3824 28.0575 23.4957 29.7423 23.4957C37.1553 23.4957 33.5611 23.4957 40.9741 23.4957Z" fill="#8C17FF"/>
<path d="M27.6082 24.7411C27.2713 24.7411 26.9343 24.7411 26.5974 24.8543C25.6988 25.194 25.4742 26.213 25.2495 27.1187C24.4633 31.5344 24.351 36.0632 25.0249 40.4788C25.1372 41.611 25.4742 42.8565 26.485 43.4226C26.9343 43.649 27.4959 43.7622 28.0575 43.8754C35.0212 44.668 31.0901 43.8754 38.0538 44.1019C39.0647 44.1019 40.1879 44.2151 41.1987 43.8754C42.2096 43.5358 43.1081 42.7432 43.2205 41.7242H43.1081C43.4451 41.0449 43.5574 40.3656 43.5574 39.573C44.0067 35.1574 44.0067 32.893 43.782 28.4774C43.782 27.7981 43.6697 27.0055 43.3328 26.3262C42.4342 24.8543 40.5248 24.7411 38.84 24.7411C31.427 24.7411 35.0212 24.7411 27.6082 24.7411Z" fill="#FF8800"/>
<path d="M11.5468 37.988C11.5468 37.5351 11.7714 37.3086 12.333 37.0822C12.7823 36.8558 12.8946 36.7425 12.8946 36.0632C12.8946 34.7046 12.8946 33.5723 12.8946 32.893C12.8946 32.5534 12.7823 32.4401 12.5576 32.4401C11.7714 32.4401 11.4344 32.4401 11.4344 31.874C11.4344 31.6476 11.6591 31.4212 11.996 31.1947C12.6699 30.7418 13.1192 30.4022 13.9054 30.4022C14.6917 30.4022 15.0286 30.7418 15.0286 31.3079C15.0286 31.9873 14.804 32.6666 14.804 34.8178C14.804 36.8558 14.6917 36.8558 15.141 37.0822C15.5902 37.3086 15.8149 37.3086 15.8149 37.8747C15.8149 38.5541 15.4779 38.6673 13.6808 38.6673C11.996 38.6673 11.5468 38.5541 11.5468 37.988Z" fill="#FFFAED"/>
<path d="M34.4596 38.5541C33.2241 38.5541 32.6625 38.6673 31.9886 38.6673C31.427 38.6673 31.2024 38.5541 31.2024 37.6483C31.2024 36.2897 31.427 36.1764 33.2241 34.7046C34.235 33.7988 34.5719 33.4591 34.5719 33.0062C34.5719 32.5534 34.235 32.2137 33.6734 32.2137C33.2241 32.2137 32.7749 32.4401 32.4379 32.6666C31.9886 33.0062 31.9886 33.1195 31.6517 33.1195C31.3147 33.1195 31.0901 32.7798 31.3147 32.2137C31.6517 31.3079 32.6625 30.4022 34.3473 30.4022C35.8074 30.4022 36.9306 31.1947 36.9306 32.7798C36.9306 34.1385 36.1444 34.7046 34.6843 35.6103C33.2241 36.6293 32.8872 36.6293 32.8872 36.969C32.8872 37.1954 33.1118 37.0822 34.235 37.0822C35.2459 37.0822 35.2459 37.0822 35.5828 36.5161C35.9198 36.0632 36.0321 35.7235 36.4814 35.7235C36.8183 35.7235 37.1553 35.95 37.1553 36.4029C37.1553 36.6293 37.0429 36.969 36.9306 37.5351C36.5937 38.5541 36.4814 38.8937 35.8074 38.8937C35.5828 38.7805 35.1335 38.5541 34.4596 38.5541Z" fill="#FFFAED"/>
<path d="M31.0901 15.9098C31.0901 15.2305 31.5394 14.6644 32.101 14.6644C32.6626 14.6644 32.9996 15.0041 32.9996 15.5702V15.9098C32.9996 16.3627 33.3365 16.5892 34.0104 16.5892C34.909 16.5892 35.3582 16.1363 35.3582 15.457C35.3582 14.5512 34.572 14.0983 33.6735 13.9851C32.8872 13.8719 32.7749 13.8719 32.7749 13.419C32.7749 12.7396 33.1119 12.8529 33.8981 12.7396C34.4597 12.7396 34.7967 12.4 34.7967 12.0603C34.7967 11.6074 34.3474 11.2678 33.6735 11.2678C33.3365 11.2678 32.9996 11.381 32.6626 11.4942C32.3256 11.6074 32.3256 11.7207 32.101 11.7207C31.7641 11.7207 31.5394 11.381 31.6517 10.9281C31.9887 10.0223 32.9996 9.45624 34.2351 9.45624C35.6952 9.45624 36.7061 10.2488 36.7061 11.381C36.7061 11.9471 36.4814 12.4 36.0322 12.6264C35.8075 12.7396 35.6952 12.7396 35.6952 12.9661C35.6952 13.1925 36.0322 13.1925 36.4814 13.419C37.043 13.7586 37.38 14.3247 37.38 15.1173C37.38 16.8156 35.9198 17.9478 34.0104 17.9478C32.3256 17.9478 31.0901 17.1553 31.0901 15.9098Z" fill="#FFFAED"/>
</svg>
