<svg width="48" height="48" viewBox="0 0 48 48" fill="none" xmlns="http://www.w3.org/2000/svg">
<path d="M39.4762 44H9V4H29.9524L39.4762 13.5238V44Z" fill="#4DB6AC"/>
<path d="M38.0476 14.4763H29V5.42871L38.0476 14.4763Z" fill="#E0F2F1"/>
<path d="M20.472 29.4143C20.4244 30.4953 20.1206 31.3134 19.5606 31.8686C19.0006 32.4238 18.2111 32.7019 17.1911 32.7019C16.1197 32.7019 15.2978 32.3496 14.7273 31.6448C14.1568 30.9391 13.8711 29.9334 13.8711 28.6267V27.0315C13.8711 25.7296 14.1663 24.7257 14.7568 24.02C15.3473 23.3153 16.1673 22.9629 17.2178 22.9629C18.2501 22.9629 19.0349 23.2515 19.5711 23.8286C20.1073 24.4057 20.412 25.2353 20.4854 26.3153H18.5644C18.5473 25.6467 18.4444 25.1857 18.2549 24.9315C18.0663 24.6781 17.7197 24.5515 17.2168 24.5515C16.7044 24.5515 16.3425 24.7305 16.1292 25.0877C15.9168 25.4467 15.8035 26.0353 15.7911 26.8553V28.6457C15.7911 29.5877 15.8959 30.2343 16.1073 30.5857C16.3187 30.9372 16.6797 31.1134 17.1911 31.1134C17.6949 31.1134 18.0416 30.9905 18.233 30.7457C18.4244 30.5 18.532 30.0562 18.5587 29.4143H20.472Z" fill="#00695C"/>
<path d="M25.6539 30.0848C25.6539 29.6991 25.5549 29.4067 25.3577 29.2095C25.1596 29.0114 24.8006 28.8067 24.2796 28.5943C23.3291 28.2343 22.6453 27.8124 22.2291 27.3276C21.812 26.8438 21.6044 26.2724 21.6044 25.6124C21.6044 24.8133 21.8872 24.1724 22.4539 23.6886C23.0206 23.2038 23.7396 22.9619 24.612 22.9619C25.1939 22.9619 25.712 23.0848 26.1682 23.3295C26.6244 23.5752 26.9749 23.921 27.2196 24.3686C27.4644 24.8162 27.5872 25.3238 27.5872 25.8924H25.6796C25.6796 25.4495 25.5844 25.1124 25.3968 24.88C25.2072 24.6486 24.9349 24.5324 24.5796 24.5324C24.2453 24.5324 23.9844 24.6314 23.7987 24.8286C23.612 25.0267 23.5187 25.2924 23.5187 25.6267C23.5187 25.8867 23.6225 26.1229 23.831 26.3333C24.0396 26.5438 24.4082 26.761 24.9377 26.9876C25.8625 27.3219 26.5339 27.7314 26.952 28.2181C27.371 28.7048 27.5806 29.3229 27.5806 30.0733C27.5806 30.8981 27.3187 31.5429 26.793 32.0067C26.2672 32.4705 25.5529 32.7029 24.651 32.7029C24.0387 32.7029 23.4815 32.5772 22.9777 32.3257C22.4739 32.0743 22.0806 31.7133 21.7958 31.2448C21.511 30.7762 21.3691 30.2229 21.3691 29.5848H23.2901C23.2901 30.1314 23.3968 30.5286 23.6091 30.7762C23.8215 31.0238 24.1691 31.1476 24.651 31.1476C25.3196 31.1457 25.6539 30.7924 25.6539 30.0848Z" fill="#00695C"/>
<path d="M31.936 29.968L33.5313 23.0928H35.6665L32.9322 32.5718H30.9398L28.2246 23.0928H30.3475L31.936 29.968Z" fill="#00695C"/>
</svg>
