<svg width="25" height="24" viewBox="0 0 25 24" fill="none" xmlns="http://www.w3.org/2000/svg">
<path d="M8.3832 3.14937C3.91838 3.14937 0.5 7.03293 0.5 11.0659C0.5 14.2026 2.10455 16.0697 5.24387 16.0697C7.68557 16.0697 9.22036 14.576 9.22036 12.6342C9.22036 11.2152 8.45296 10.2443 7.54605 10.2443C6.4996 10.2443 6.08103 11.0659 5.87174 11.8127C5.73221 12.8583 5.45316 13.3064 4.68577 13.3064C3.77885 13.3064 3.29051 12.5595 3.29051 11.1406C3.29051 8.22788 5.03458 5.76331 8.52273 5.76331C11.1737 5.76331 11.2435 5.68862 11.2435 6.88357V17.1153C11.2435 18.4596 11.1737 18.5343 10.0575 18.7583C9.01107 18.9077 8.66225 19.0571 8.66225 20.0279C8.66225 21.0735 9.01107 20.9988 12.9178 20.9988C17.2431 20.9988 17.5221 21.0735 17.5221 19.8786C17.5221 19.0571 17.3128 18.9824 16.1269 18.7583C14.8711 18.5343 14.9409 18.5343 14.9409 15.9203C14.9409 14.4266 14.7316 14.6507 17.3826 14.6507C22.3358 14.6507 24.5682 12.6342 24.4984 8.90003C24.4984 5.01647 21.987 3 17.4524 3L8.3832 3.14937ZM17.3128 12.4102C14.9409 12.4849 14.8014 12.933 14.8014 9.0494C14.8014 5.38989 14.8014 5.83799 17.0338 5.83799C19.5453 5.83799 20.5917 7.03293 20.5917 9.0494C20.5917 11.2899 19.4755 12.2608 17.3128 12.4102Z" fill="#B9B1C4"/>
</svg>
