<svg width="48" height="48" viewBox="0 0 48 48" fill="none" xmlns="http://www.w3.org/2000/svg">
<path d="M4.47938 37.8974C4.45764 38.3198 4.79113 38.6766 4.76213 39.099C17.3614 38.1377 29.6635 37.8319 42.299 38.0576C42.705 38.0649 43.1689 38.0576 43.4517 37.7954C43.7634 37.5114 43.6764 37.0599 43.6981 36.6594C43.9084 33.142 43.9084 30.4184 43.1762 27.7312C42.908 26.7408 41.5523 26.5005 40.8782 25.6849C39.827 24.4032 38.0582 23.7841 36.3546 23.3545C29.881 21.7232 22.7404 21.949 16.651 24.5124C10.5616 27.0758 6.74118 31.0811 5.21883 36.9944" fill="#FF936D"/>
<path d="M43.8214 31.4234C43.6329 24.8256 43.0385 18.235 42.0599 11.71C41.9439 10.9162 41.7771 10.0569 41.1754 9.53984C40.5592 9.01551 39.6748 8.99367 38.8702 9.00095C33.9624 9.05192 28.6921 9.21213 24.734 12.1251C18.6808 9.75831 11.8447 9.48159 5.62483 11.3313C5.19712 11.4551 4.75489 11.608 4.45042 11.9357C4.01546 12.4164 3.99374 13.1301 4.00099 13.7782C4.07348 21.5849 4.14597 29.3989 4.21847 37.2056C4.21847 37.5697 4.49392 38.0795 4.77664 37.861L5.68281 37.7154C9.85116 36.0113 13.3961 35.4214 17.8979 35.4287C20.0727 35.436 22.4142 35.7273 24.0888 37.06C24.3715 37.2857 24.763 37.2857 25.053 37.0672C29.8448 33.4188 37.3768 34.1688 42.4948 37.5552C43.0385 37.912 43.7634 37.6061 43.8794 36.9653C44.1621 35.2321 43.8649 32.9163 43.8214 31.4234Z" fill="#FBE1B0"/>
<path d="M7.05288 17.8345C6.90065 17.9146 6.74843 18.0093 6.74118 18.1404C6.73393 18.2496 6.82818 18.3515 6.93692 18.4317C7.73435 19.0361 9.11894 19.0434 10.3223 19.007C13.3598 18.905 16.4335 18.803 19.355 18.235C19.7682 18.1549 20.2031 18.053 20.4859 17.8345C20.7758 17.616 20.8483 17.2446 20.5294 17.048C20.3119 16.9096 19.9929 16.8951 19.6957 16.8878C15.5201 16.764 11.3227 17.0626 7.27036 17.7544" fill="#FF936D"/>
<path d="M7.05288 14.6448C6.90065 14.7249 6.74843 14.8196 6.74118 14.9506C6.73393 15.0599 6.82818 15.1618 6.93692 15.2419C7.73435 15.8464 9.11894 15.8537 10.3223 15.8173C13.3598 15.7153 16.4335 15.6133 19.355 15.0453C19.7682 14.9652 20.2031 14.8633 20.4859 14.6448C20.7758 14.4263 20.8483 14.0549 20.5294 13.8583C20.3119 13.7199 19.9929 13.7054 19.6957 13.6981C15.5201 13.5743 11.3227 13.8729 7.27036 14.5647" fill="#FF936D"/>
<path d="M14.1572 20.6746L9.64089 20.66C8.27802 20.4998 7.19788 20.8348 7.04565 21.8762C7.03115 21.9927 7.03113 22.1238 7.09637 22.2257C7.21961 22.4151 7.51684 22.4296 7.75607 22.4224C9.08269 22.3714 10.4166 22.3277 11.7432 22.2767C12.6349 22.2476 13.5555 22.2039 14.3384 21.8106C14.6067 21.6723 14.8821 21.4393 14.8314 21.1625C14.7807 20.8858 14.4472 20.7474 14.1572 20.6746Z" fill="#FF936D"/>
</svg>
