<svg xmlns="http://www.w3.org/2000/svg" width="25" height="33" viewBox="0 0 25 33">
    <g fill="none" fill-rule="evenodd">
        <g fill-rule="nonzero">
            <g>
                <g>
                    <g>
                        <g>
                            <g>
                                <path fill="#1976D2" d="M25 32.813L0 32.813 0 0 17.188 0 25 7.813z" transform="translate(-562.000000, -510.000000) translate(304.000000, 0.000000) translate(30.000000, 315.000000) translate(20.000000, 178.000000) translate(180.000000, 0.000000) translate(28.000000, 17.000000)"/>
                                <path fill="#E3F2FD" d="M23.828 8.594L16.406 8.594 16.406 1.172z" transform="translate(-562.000000, -510.000000) translate(304.000000, 0.000000) translate(30.000000, 315.000000) translate(20.000000, 178.000000) translate(180.000000, 0.000000) translate(28.000000, 17.000000)"/>
                                <path fill="#FAFAFA" d="M14.606 21.272L15.753 15.003 18.143 15.003 16.021 25 13.522 25 12.183 19.301 10.871 25 8.379 25 6.25 15.002 8.646 15.002 9.793 21.271 11.166 15.002 13.213 15.002z" transform="translate(-562.000000, -510.000000) translate(304.000000, 0.000000) translate(30.000000, 315.000000) translate(20.000000, 178.000000) translate(180.000000, 0.000000) translate(28.000000, 17.000000)"/>
                            </g>
                        </g>
                    </g>
                </g>
            </g>
        </g>
    </g>
</svg>
