<svg width="48" height="48" viewBox="0 0 48 48" fill="none" xmlns="http://www.w3.org/2000/svg">
<path d="M36.0474 44H13.7617V4H36.0474C37.9409 4 39.476 5.791 39.476 8V40C39.476 42.209 37.9409 44 36.0474 44Z" fill="#FF7043"/>
<path d="M12.1746 4H13.7619V44H12.1746C10.4214 44 9 42.209 9 40V8C9 5.791 10.4214 4 12.1746 4Z" fill="#BF360C"/>
<path d="M19.0252 23.6633H16.4001V26.1766H19.5064V27.7652H14.7148V18.2861H19.4947V19.8814H16.4001V22.1214H19.0252V23.6633ZM22.269 24.4766V27.8099H20.5838V18.3309H23.4269C24.2519 18.3309 24.9109 18.6223 25.4014 19.2033C25.8919 19.7842 26.1375 20.5395 26.1375 21.469C26.1375 22.3985 25.8944 23.1309 25.4098 23.6699C24.9252 24.209 24.2519 24.4766 23.3925 24.4766H22.269ZM22.269 22.8814H23.4269C23.748 22.8814 23.9962 22.7623 24.1723 22.5233C24.3483 22.2842 24.4355 21.9376 24.4355 21.4814C24.4355 21.008 24.3458 20.6318 24.1664 20.3509C23.987 20.0718 23.7463 19.9299 23.4445 19.9252H22.269V22.8814ZM32.3863 18.2861V24.7633C32.3787 25.748 32.1591 26.5023 31.7248 27.0261C31.2905 27.549 30.6675 27.8099 29.8559 27.8099C29.0309 27.8099 28.3996 27.5452 27.9628 27.0157C27.5268 26.4861 27.3096 25.7204 27.3096 24.7176V18.2861H28.968V24.7242C28.968 24.9528 28.968 26.2214 29.8065 26.2214C30.6449 26.2214 30.6415 25.2776 30.6449 24.7566V18.2861H32.3863ZM33.1601 27.8099V18.3309H35.7391C36.6103 18.3309 37.2718 18.5509 37.7254 18.9918C38.1773 19.4318 38.4045 20.0776 38.4045 20.928C38.4045 21.4099 38.3106 21.8242 38.1236 22.1718C37.9366 22.5195 37.6801 22.7728 37.3556 22.9338C37.7304 23.0557 38.0188 23.2995 38.2209 23.6671C38.4229 24.0338 38.5244 24.4852 38.5244 25.0242C38.5244 25.9442 38.3013 26.6385 37.8561 27.108C37.4118 27.5757 36.7679 27.8099 35.9227 27.8099H33.1601ZM34.8454 22.2957H35.7224C36.383 22.2957 36.7142 21.9071 36.7142 21.1299C36.7142 20.7004 36.6371 20.3928 36.4853 20.2052C36.3336 20.0176 36.0837 19.9252 35.74 19.9252H34.8454V22.2957ZM34.8454 23.689V26.2214H35.9227C36.2237 26.2214 36.4535 26.1157 36.6103 25.9023C36.767 25.689 36.845 25.388 36.845 24.9976C36.845 24.1461 36.5742 23.7099 36.0309 23.689H34.8454Z" fill="#A3280C"/>
</svg>
