<svg width="48" height="48" viewBox="0 0 48 48" fill="none" xmlns="http://www.w3.org/2000/svg">
<g clip-path="url(#clip0_1596_22184)">
<path d="M7.74961 20.4184C6.34104 21.2339 6.56345 24.14 7.36411 27.995C8.16477 31.85 10.7595 35.2825 14.2364 37.121C17.832 39.0189 22.1022 39.1894 26.1425 38.7446C29.145 38.4184 32.2216 37.7289 34.5939 35.8681C36.5808 34.3113 37.9078 32.0576 38.827 29.7075C40.5396 25.3409 41.5404 22.7388 38.5083 19.1581C36.8921 17.2528 33.1705 19.677 30.8723 19.8994C24.3188 20.537 18.5659 20.4925 12.9317 20.4925C12.9391 20.4925 8.88388 19.766 7.74961 20.4184Z" fill="#BA8DFE"/>
<path d="M17.3649 37.8624C22.6433 37.1804 25.1268 36.9877 30.9613 37.6252C31.6285 37.7142 32.2512 38.033 32.7034 38.5371C33.2669 39.145 33.3336 39.9901 33.0371 40.4053C32.7405 40.8204 32.1697 41.0799 31.6137 41.154C26.3204 41.9176 22.2652 41.888 16.4085 41.369C15.9415 41.3246 15.341 41.1985 14.9777 40.6796C14.8072 40.4201 14.7109 40.1087 14.7109 39.7974C14.659 38.2479 15.897 37.388 17.4464 37.8995L17.3649 37.8624Z" fill="#BA8DFE"/>
<path d="M37.7891 18.0016C38.1672 16.6005 37.3369 15.1548 35.9357 14.7767C34.9423 14.5099 33.8896 14.8435 33.2298 15.6293C32.5923 15.1178 31.7916 14.8509 30.9761 14.8879C30.5387 13.3904 28.9745 12.5305 27.4769 12.9604C26.9876 13.1013 26.5428 13.3756 26.1944 13.7537C25.1787 13.1606 23.9629 13.0272 22.8435 13.3904C22.1837 12.0931 20.5972 11.5741 19.2998 12.2339C18.6474 12.5675 18.1656 13.1532 17.958 13.8575C16.8979 13.7166 15.8377 14.0873 15.0964 14.8435C13.1911 13.5906 10.6334 14.1244 9.38797 16.0296C8.82455 16.8896 8.60214 17.9349 8.76524 18.9505C7.22323 19.0173 6 20.285 6 21.827C6 24.1029 8.50577 25.467 10.411 24.2734C12.7908 25.6301 17.6985 26.5568 23.3773 26.5568C28.0478 26.5568 32.2068 25.9267 34.8534 24.9481C36.4102 26.6161 39.0198 26.7051 40.6878 25.1482C41.5255 24.3698 42 23.2726 42 22.1309C42 19.7734 40.0354 17.9349 37.7891 18.0016Z" fill="#FFE1AF"/>
<path d="M39.6721 7.98597C39.5609 7.46702 38.9382 6.97032 38.2043 7.00738C37.5222 7.04445 37.0552 7.48926 36.6919 7.89701C33.0222 11.9893 30.7537 15.1622 28.285 19.6029C29.5379 19.6771 30.6499 20.4184 31.2207 21.5379C34.3641 17.6903 37.0626 13.6647 39.2718 9.50574C39.5313 9.01645 39.7833 8.4975 39.6721 7.98597Z" fill="#FF8800"/>
</g>
<defs>
<clipPath id="clip0_1596_22184">
<rect width="36" height="34.7471" fill="white" transform="translate(6 7)"/>
</clipPath>
</defs>
</svg>
