<svg width="209" height="176" viewBox="0 0 209 176" fill="none" xmlns="http://www.w3.org/2000/svg">
<path d="M65.4662 102.41C65.269 104.286 64.9074 106.295 64.3815 108.468C63.2312 113.078 63.6585 117.918 65.5976 122.231C69.6403 131.318 75.162 144.357 58.9584 159.7C36.1814 181.266 8.17837 152.786 10.3805 130.1C10.5777 128.026 10.742 125.523 10.9721 122.791C12.2868 106.789 15.3106 81.7984 35.031 78.0449C49.7884 75.2133 67.0767 87.4616 65.4662 102.41Z" fill="#F6B334"/>
<path d="M38.1535 104.978C38.1535 104.978 37.2989 103.892 35.8199 104.451C34.7024 104.879 35.6884 108.567 38.7451 108.04C40.5528 107.744 40.6185 105.9 40.5857 105.307C40.5857 105.176 40.5199 105.044 40.4213 104.945C40.1584 104.682 39.4682 104.287 38.1535 104.978Z" fill="#3A337B"/>
<path d="M53.371 105.768C54.85 105.571 55.606 105.768 55.6717 106.229C55.7374 106.723 54.7514 107.316 53.2724 107.513C51.7934 107.711 51.4647 107.414 51.3989 106.921C51.3332 106.427 51.892 105.966 53.371 105.768Z" fill="white"/>
<path d="M22.607 105.34C24.0203 105.834 24.6119 106.361 24.4476 106.822C24.2833 107.283 23.1329 107.349 21.7196 106.855C20.3064 106.361 20.1749 105.933 20.3392 105.472C20.5036 105.011 21.1938 104.846 22.607 105.34Z" fill="white"/>
<path d="M26.0582 174.615C25.4994 174.615 25.0393 174.154 25.0393 173.595C25.0393 173.035 25.4994 172.574 26.0582 172.574C28.0631 172.541 30.4624 172.376 31.4813 172.146C28.8519 157.329 32.1387 136.093 32.2701 135.204C32.3687 134.644 32.8617 134.282 33.4205 134.348C33.9792 134.446 34.3408 134.94 34.275 135.5C34.275 135.566 33.3876 141.163 32.8946 148.505C32.4345 155.255 32.1715 164.869 33.6177 172.409C33.6177 172.442 33.6177 172.442 33.6177 172.475C33.6506 172.837 33.552 173.167 33.3219 173.43C33.059 173.726 32.3359 174.582 26.0582 174.615Z" fill="#F6B334"/>
<path d="M42.2288 175.669C41.6701 175.669 41.21 175.208 41.21 174.648C41.21 174.089 41.6701 173.628 42.2288 173.628C44.2338 173.595 46.6331 173.43 47.652 173.2C45.0226 158.383 48.3093 137.146 48.4408 136.257C48.5394 135.698 49.0324 135.335 49.5911 135.401C50.1499 135.5 50.5114 135.994 50.4457 136.554C50.4457 136.62 49.5583 142.217 49.0653 149.559C48.6051 156.309 48.3422 165.923 49.7883 173.463C49.7883 173.496 49.7883 173.496 49.7883 173.529C49.8212 173.891 49.7226 174.22 49.4925 174.484C49.2296 174.78 48.5065 175.603 42.2288 175.669Z" fill="#F6B334"/>
<path d="M51.0703 80.3168C51.0703 80.3168 51.3332 78.5059 48.901 76.8926C46.4688 75.2792 41.1772 71.5257 46.436 69.6161C48.2765 68.9576 51.0045 69.4844 51.2017 71.5587C51.3003 72.5794 52.3192 74.3244 53.0752 75.4439C53.5024 76.1024 54.5871 75.9048 54.6857 75.1146C54.7185 74.95 54.6857 74.8183 54.6199 74.6866C54.2255 73.9622 53.5025 69.5173 54.0283 66.6857C54.5213 63.8541 56.7563 62.5371 58.5969 62.7347C60.4046 62.9322 57.4465 70.7026 59.6158 71.2294C61.1605 71.6245 63.6256 61.1872 69.5088 63.1298C72.8942 64.2492 69.213 67.4759 68.0955 68.6942C67.3725 69.4844 64.6773 71.855 63.5927 73.172C63.3626 73.4354 63.6585 73.8634 63.9871 73.6988C66.5179 72.6123 73.2886 70.966 72.6641 74.7195C72.4012 76.3658 72.1711 77.5511 69.969 77.8803C67.6683 78.2096 63.6256 78.2096 62.9354 78.2754C59.5829 78.6376 56.2633 84.0703 56.2633 84.0703L51.0374 83.774L51.0703 80.3168Z" fill="#F6B334"/>
<path d="M47.9807 79.0986C47.9807 79.0986 51.0374 80.1852 50.873 79.1645C50.5444 77.2877 51.9577 82.1607 51.9577 82.1607L49.2297 81.9961L47.9807 79.0986Z" fill="#F6B334"/>
<path d="M57.1506 82.7861C57.1506 82.7861 56.6247 83.6751 57.6765 84.597C58.7282 85.5519 56.1974 84.9592 56.1317 84.8934C56.066 84.8275 54.7842 82.9178 54.7842 82.9178L57.1506 82.7861Z" fill="#F6B334"/>
<path d="M59.3198 80.3168C59.1884 80.3827 58.4982 81.1729 59.4842 81.107C60.4702 81.0412 62.508 79.5266 63.494 79.8559C64.4471 80.1851 64.3157 83.2801 61.1275 82.885C59.5828 82.6874 58.6625 82.5557 58.1366 82.457C57.5779 82.3582 57.4464 82.2923 57.4464 82.2923C57.4464 82.2923 56.8548 81.6997 57.0849 81.6009C57.2492 81.5351 59.3198 80.3168 59.3198 80.3168Z" fill="#F6B334"/>
<path d="M57.0522 83.0169C57.0522 83.0169 57.2165 82.3254 58.6627 82.523C60.1088 82.7205 58.7941 81.9633 58.7941 81.9633L57.0193 81.6011L57.0522 83.0169Z" fill="#F6B334"/>
<path d="M68.72 134.414L68.0298 132.833C72.0067 131.121 78.5802 127.828 78.2186 124.733C77.7914 121.21 68.3584 118.346 62.5081 117.391L62.8039 115.712C62.9682 115.745 66.8465 116.403 70.8892 117.72C76.5753 119.597 79.6319 121.902 79.9278 124.536C80.3222 127.763 76.641 130.989 68.72 134.414Z" fill="#F6B334"/>
<path d="M11.2363 134.414L11.9265 132.833C7.94958 131.121 1.37611 127.828 1.73765 124.733C2.16493 121.21 11.5979 118.346 17.4482 117.391L17.1524 115.712C16.9881 115.745 13.1098 116.403 9.06707 117.72C3.38102 119.597 0.324352 121.902 0.0285454 124.536C-0.365862 127.763 3.31527 130.989 11.2363 134.414Z" fill="#F6B334"/>
<path d="M39.4024 97.438H36.8716V98.8538H39.4024V97.438Z" fill="#3A337B"/>
<path d="M27.1099 95.4297L27.0441 95.4955C26.9127 95.6272 26.8798 95.5284 26.7483 95.3967L25.105 93.9151L23.2973 92.17L22.5413 91.4457C22.4098 91.314 22.3112 91.2481 22.4427 91.1493L22.5084 91.0176C22.6399 90.8859 22.87 90.853 23.0014 90.9847L24.9406 92.7627L27.1099 94.8699C27.3071 95.0016 27.2085 95.2979 27.1099 95.4297Z" fill="black"/>
<path d="M28.6877 93.5859L28.6219 93.6188C28.4576 93.6847 28.4576 93.5859 28.3919 93.4213L27.4058 91.4458L26.3869 89.1739L25.9597 88.2191C25.8939 88.0544 25.8282 87.9557 25.9926 87.8898L26.124 87.824C26.2883 87.7581 26.4527 87.7252 26.5184 87.8898L27.6688 90.2605L28.9177 93.0262C28.9835 93.1579 28.852 93.5201 28.6877 93.5859Z" fill="black"/>
<path d="M31.4813 93.4212L31.2841 93.3554C31.1198 93.3554 31.1526 93.2566 31.1526 93.092L31.0869 90.886L31.1198 88.3836L31.1526 87.33C31.1526 87.1654 31.1526 87.0337 31.317 87.0337L31.5799 87.0666C31.7443 87.0666 31.6785 87.1983 31.6785 87.3959V90.0299L31.7114 93.092C31.6785 93.2566 31.6457 93.4212 31.4813 93.4212Z" fill="black"/>
<path d="M34.1108 94.6394L33.8808 94.4419C33.7493 94.3431 33.815 94.2772 33.9136 94.1455L35.0311 92.2359L36.3787 90.1286L36.9375 89.2396C37.0361 89.1079 37.0689 88.9762 37.2333 89.075L37.5291 89.2726C37.6605 89.3713 37.5619 89.4701 37.4633 89.6018L36.1158 91.8737L34.5052 94.4419C34.3738 94.6065 34.2423 94.7382 34.1108 94.6394Z" fill="black"/>
<path d="M51.1687 94.9359L51.2345 95.0018C51.3659 95.1335 51.3988 95.0347 51.5303 94.903L53.2065 93.6518L55.0142 91.9068L55.7702 91.1824C55.9016 91.0507 56.0002 90.9849 55.8688 90.8861L55.7373 90.5568C55.6058 90.4251 55.5401 90.5898 55.4415 90.6885L53.5023 92.4665L51.3331 94.5737C51.1687 94.6725 51.0701 94.8042 51.1687 94.9359Z" fill="black"/>
<path d="M46.929 92.8614H46.9947C47.159 92.8614 47.2905 92.6638 47.2905 92.4992L47.3563 90.2932L47.3234 87.7909L47.2905 86.7372C47.2905 86.5726 47.2905 86.4409 47.1262 86.4409L46.8304 86.5068C46.666 86.5068 46.7318 86.6385 46.7318 86.836L46.666 89.4701L46.6989 92.5321C46.7318 92.6967 46.7646 92.8614 46.929 92.8614Z" fill="black"/>
<path d="M44.3324 94.0138L44.3981 93.9808C44.5296 93.8821 44.6939 93.7833 44.5953 93.6187L43.4778 91.709L42.1303 89.6018L41.5715 88.7128C41.4729 88.5811 41.4401 88.4494 41.2757 88.5482L40.9142 88.6469C40.7827 88.7457 40.8813 88.8445 40.9799 88.9762L42.3275 91.248L43.938 93.8162C44.0695 93.9808 44.2009 94.1126 44.3324 94.0138Z" fill="black"/>
<path d="M49.5254 93.4872L49.5912 93.5201C49.7555 93.5859 49.9856 93.6518 50.0513 93.5201L51.0373 91.5446L52.0562 89.2727L52.4835 88.3179C52.5492 88.1533 52.3849 87.8899 52.2534 87.824L52.1219 87.7582C51.9576 87.6923 51.9576 87.8569 51.8919 87.9886L50.7415 90.3593L49.4926 93.125C49.394 93.2567 49.3611 93.4213 49.5254 93.4872Z" fill="black"/>
<path d="M36.8715 98.1297C36.8715 102.18 33.5848 105.505 29.5092 105.505C25.4666 105.505 22.147 102.212 22.147 98.1297C22.147 94.0799 25.4337 90.7544 29.5092 90.7544C33.5848 90.7544 36.8715 94.0799 36.8715 98.1297Z" fill="white"/>
<path d="M29.5423 91.4788C25.894 91.4788 22.903 94.475 22.903 98.1297C22.903 101.784 25.894 104.781 29.5423 104.781C33.1905 104.781 36.1815 101.784 36.1815 98.1297C36.1815 94.475 33.1905 91.4788 29.5423 91.4788ZM29.5423 106.196C25.1052 106.196 21.4897 102.575 21.4897 98.1297C21.4897 93.6848 25.1052 90.063 29.5423 90.063C33.9794 90.063 37.5948 93.6848 37.5948 98.1297C37.5948 102.575 33.9794 106.196 29.5423 106.196Z" fill="#3A337B"/>
<path d="M31.9086 96.0879C33.4205 97.6024 33.4205 100.072 31.9086 101.619C30.3967 103.134 27.9316 103.134 26.3869 101.619C24.875 100.105 24.875 97.6354 26.3869 96.0879C27.9316 94.5404 30.3967 94.5404 31.9086 96.0879Z" fill="black"/>
<path d="M54.094 98.1297C54.094 102.18 50.8072 105.505 46.7317 105.505C42.689 105.505 39.3694 102.212 39.3694 98.1297C39.3694 94.0799 42.6561 90.7544 46.7317 90.7544C50.8072 90.7544 54.094 94.0799 54.094 98.1297Z" fill="white"/>
<path d="M46.7317 91.4788C43.0834 91.4788 40.0925 94.475 40.0925 98.1297C40.0925 101.784 43.0834 104.781 46.7317 104.781C50.38 104.781 53.3709 101.784 53.3709 98.1297C53.3709 94.475 50.4129 91.4788 46.7317 91.4788ZM46.7317 106.196C42.2946 106.196 38.6792 102.575 38.6792 98.1297C38.6792 93.6848 42.2946 90.063 46.7317 90.063C51.1688 90.063 54.7842 93.6848 54.7842 98.1297C54.7842 102.575 51.1688 106.196 46.7317 106.196Z" fill="#3A337B"/>
<path d="M50.5443 99.1173C50.5443 101.257 48.8024 103.035 46.6331 103.035C44.4968 103.035 42.7219 101.29 42.7219 99.1173C42.7219 96.9772 44.4639 95.1992 46.6331 95.1992C48.8024 95.2321 50.5443 96.9772 50.5443 99.1173Z" fill="black"/>
<path d="M50.3143 78.1768C50.3143 78.1768 54.9814 79.4608 57.6437 82.5229C56.9535 82.7205 57.0849 83.6753 57.0849 83.6753C57.0849 83.6753 55.4416 82.2595 53.601 81.2059C51.7933 80.1523 50.2485 79.6255 50.3143 79.6255C50.38 79.5926 50.7744 79.6255 50.8073 79.2962C50.8402 78.967 50.3143 78.1768 50.3143 78.1768Z" fill="#3A337B"/>
<path d="M101.065 72.8825C97.4088 70.6055 94.9712 76.5385 98.6275 78.1099C96.7032 80.7396 101.61 82.9845 102.829 80.1945C106.485 82.9845 109.468 77.4044 107.031 75.9933C109.789 74.2936 103.15 68.7134 101.065 72.8825Z" fill="#F6F3F8"/>
<path d="M158.374 25.9021C131.359 9.01202 113.348 53.0214 140.364 64.6779C126.145 84.1847 162.403 100.837 171.408 80.1406C198.424 100.837 220.463 59.4443 202.453 48.9772C222.833 36.3691 173.778 -5.02339 158.374 25.9021Z" fill="#F6F3F8"/>
<path d="M129.7 11.9075C103.198 -5.53208 84.2557 37.8723 110.878 50.101C96.2755 69.196 131.983 86.6117 141.424 66.2122C167.838 87.4416 190.73 46.7355 173.044 35.8986C193.621 23.8145 145.745 -18.5296 129.7 11.9075Z" fill="#F6F3F8"/>
<g clip-path="url(#clip0_117_3532)">
<path d="M142.245 47.3076C145.798 51.1395 151.361 51.6185 155.687 49.0639L162.021 55.6101L158.777 58.8034C157.695 59.921 157.695 61.6774 158.777 62.795C159.858 63.9126 161.558 63.9126 162.639 62.795L165.884 59.4421L164.494 60.879C163.412 61.9967 163.412 63.753 164.494 64.8706C165.575 65.9883 167.275 65.9883 168.356 64.8706L169.747 63.4337C170.983 64.711 172.837 64.711 174.073 63.4337C175.309 62.1563 175.309 60.2404 174.073 58.9631L160.013 44.4337C162.176 40.1227 161.558 34.6942 158.004 31.0219C153.678 26.5513 146.571 26.5513 142.245 31.0219C137.918 35.4925 137.918 42.837 142.245 47.3076ZM145.026 33.8958C146.571 32.2992 148.888 31.8202 149.97 33.0975C151.206 34.3748 150.742 36.6101 149.197 38.3664C147.652 39.9631 145.335 40.4421 144.099 39.1647C143.172 37.8874 143.481 35.4925 145.026 33.8958Z" fill="#00D4D3"/>
</g>
<path d="M85.4134 79.2324C83.3287 77.9496 81.9495 81.3169 84.0343 82.2149C82.9438 83.6901 85.7341 85.005 86.4077 83.4015C88.4924 84.9729 90.1602 81.8301 88.7811 81.0283C90.3848 80.0341 86.6322 76.8592 85.4134 79.2324Z" fill="#F6F3F8"/>
<defs>
<clipPath id="clip0_117_3532">
<rect width="36" height="38" fill="white" transform="translate(139 27.6689)"/>
</clipPath>
</defs>
</svg>
