<svg width="48" height="48" viewBox="0 0 48 48" fill="none" xmlns="http://www.w3.org/2000/svg">
<path d="M5.96619 10.9967C8.02112 18.8234 10.068 26.6583 12.1229 34.485C12.4708 35.8114 12.8429 37.1955 13.7329 38.2253C15.173 39.906 17.5758 40.252 19.7683 40.3508C22.9882 40.4991 26.2243 40.3344 29.4119 39.873C31.03 39.6423 32.6966 39.3045 33.9991 38.2994C36.5961 36.2975 36.8388 32.4912 36.855 29.1793C36.8793 23.1075 36.9116 17.0356 36.9359 10.9638C36.944 9.55498 36.9116 8.04733 36.1026 6.9104" fill="#D6ABED"/>
<path d="M14.5419 11.7299C19.3637 11.5157 19.2343 11.3592 24.0561 11.1532C28.2145 10.972 32.5671 10.7331 36.1349 8.55806C36.7498 8.18733 37.4051 7.47057 37.0572 6.83619C29.6384 6.28421 22.1711 6.32541 14.7603 6.9433C11.9854 7.17398 9.00004 7.58591 6.99364 9.54669C6.55677 9.9751 6.16034 10.5518 6.28169 11.1615C6.48395 12.1583 7.80267 12.3149 8.80586 12.2407C10.5453 12.1171 12.2766 11.9853 14.016 11.8617" fill="#BA8DFE"/>
<path d="M4.55034 11.8452C2.84328 16.0634 5.35129 21.1466 8.72495 24.1454C11.8154 26.8971 16.1276 27.6304 20.2132 28.0917C23.8781 28.5037 27.5996 28.792 31.2484 28.1988C34.889 27.6056 38.4892 26.0733 40.9891 23.3051C43.489 20.5369 44.7268 16.4506 43.5537 12.8833C42.3887 9.31597 35.5362 4.60349 34.7515 8.45091C35.0751 10.4941 37.4294 10.6836 38.5458 12.4137C40.2529 15.05 39.1769 18.8068 36.8873 20.9406C34.5978 23.0662 31.4425 23.8983 28.3763 24.3844C26.1919 24.7304 23.2147 24.4585 21.0869 23.8406C18.9835 23.231 14.3882 22.6872 12.6487 21.3526C9.39644 18.8563 9.36409 15.5279 8.97575 11.4003C8.9353 10.9884 8.92721 10.5518 8.73305 10.181C8.30426 9.35716 7.10689 9.24182 6.30595 9.70318C5.50501 10.1645 5.01149 11.0131 4.55034 11.8205" fill="#F55B72"/>
</svg>
