<svg width="48" height="48" viewBox="0 0 48 48" fill="none" xmlns="http://www.w3.org/2000/svg">
<g clip-path="url(#clip0_1076_15001)">
<path d="M42.5932 16.3124C38.6556 7.12461 26.6106 2.33853 17.5316 6.52998L8.73535 11.026C3.12983 16.8563 2.56421 26.559 6.70489 33.4988C11.8318 42.0847 23.7825 45.8918 32.8253 41.6279C41.868 37.3712 46.5381 25.5002 42.5932 16.3124ZM21.8898 13.506L23.1081 12.8824C24.3626 12.3023 26.0232 12.9622 26.5744 14.2312C27.1182 15.5002 26.4728 17.1391 25.2256 17.7265C23.9783 18.3139 22.3249 17.7918 21.6142 16.6025C21.0414 15.6525 21.1211 14.311 21.8898 13.506ZM26.3206 34.2457C26.2698 34.6518 26.1103 35.1667 25.4649 35.4785C25.1095 35.6525 24.7179 35.7033 24.3771 35.7105C22.4627 35.7541 21.4039 34.6881 22.0276 33.3465L21.9841 33.4263C21.1429 28.865 20.9036 26.7185 21.694 21.6786C21.7738 21.1928 22.1219 20.6199 22.818 20.1703C23.5722 19.6844 24.6092 19.6264 25.124 19.8875C25.6389 20.1485 25.9507 20.6417 26.0522 21.113C27.0022 25.6815 26.9659 29.1913 26.3206 34.2457Z" fill="#FF8800"/>
</g>
<defs>
<clipPath id="clip0_1076_15001">
<rect width="40" height="38.3829" fill="white" transform="translate(4 5)"/>
</clipPath>
</defs>
</svg>
