<svg width="48" height="48" viewBox="0 0 48 48" fill="none" xmlns="http://www.w3.org/2000/svg">
<g clip-path="url(#clip0_1596_22170)">
<path d="M36.9941 26.8166C39.2756 23.636 40.2005 19.3056 39.4529 15.3278C38.7052 11.3501 36.2927 7.79383 33.0633 5.89308C29.7105 3.93102 25.741 3.75474 21.9874 4.20694C19.1973 4.54417 16.3378 5.25695 14.1257 7.18069C12.2836 8.79019 11.0426 11.1201 10.1871 13.5497C8.59163 18.064 8.32957 23.6513 11.1506 27.3455C12.6535 29.3152 14.8348 30.4955 17.0469 31.3003C22.8661 33.4156 29.564 33.1933 34.7589 29.5911" fill="#FFCB6E"/>
<path d="M29.4325 37.7612C26.9661 38.5353 24.3687 38.8036 21.8097 38.5506C20.9234 38.4663 19.9907 38.2977 19.2123 37.8302C18.4261 37.3627 17.8712 36.5349 18.0561 35.8911C18.4261 35.6919 18.9656 35.8451 19.4435 35.9754C22.2491 36.7495 25.2088 36.8032 28.0452 36.1134C28.4383 36.0214 28.8545 35.9065 29.2707 35.9754C29.7331 36.0521 30.1108 36.3816 30.1108 36.7495C30.1108 37.1174 29.9335 37.6616 29.4171 37.7382" fill="#FF8800"/>
<path d="M28.562 35.1784C24.978 36.2131 22.9817 36.3587 19.0277 35.0864C18.6501 34.9485 18.2416 34.6726 17.9949 34.2894C17.7251 33.8755 17.8408 33.4693 18.1028 33.3543C18.3649 33.2317 18.7503 33.2317 19.1048 33.3007C22.4884 33.8525 25.0242 34.0058 28.7701 33.3467C29.0707 33.2853 29.4561 33.2317 29.7644 33.4003C29.934 33.4923 30.0265 33.6302 30.0727 33.7529C30.3656 34.4503 29.6411 35.1631 28.5004 35.1708C28.5158 35.1784 28.5389 35.1784 28.562 35.1784Z" fill="#FF8800"/>
<path d="M18.9429 40.4207C18.5652 40.2828 18.1567 39.9992 17.9101 39.616C17.648 39.2021 17.9563 38.8726 18.2184 38.7499C18.4804 38.6273 18.6731 38.566 19.0277 38.635C22.4113 39.2098 24.9471 39.3631 28.693 38.7116C28.9936 38.6503 29.379 38.5966 29.6873 38.7653C29.8568 38.8572 29.9493 38.9952 29.9956 39.1178C30.2808 39.8229 29.5408 40.2368 28.4155 40.5357C25.6639 41.2178 22.92 41.8003 18.9429 40.4207Z" fill="#FF8800"/>
<path d="M21.7099 43.5938C21.2937 43.4711 20.8312 43.1952 20.5614 42.8043C20.2763 42.3828 20.6 42.0609 20.8543 41.9383C21.1164 41.808 21.3168 41.7467 21.6713 41.8003C23.3978 42.0073 23.6059 41.808 23.8603 41.831C24.1146 41.808 24.4075 41.9996 26.2959 41.7927C26.5965 41.7467 26.9896 41.7083 27.3056 41.8693C27.4829 41.9613 27.5676 42.0916 27.6216 42.2219C27.9145 42.9193 27.1129 43.3792 25.8797 43.6014C24.3382 43.8467 24.4152 43.8543 24.3073 43.9463C24.1994 44 23.9142 44.1303 21.7099 43.5938Z" fill="#FF8800"/>
<path d="M15.7979 23.7049C16.4839 23.6359 17.7325 23.452 19.1353 22.9155C19.8367 22.6472 20.5766 22.287 21.2934 21.8042C22.0179 21.3213 22.7193 20.7158 23.3513 19.9647C23.3822 19.9264 23.4438 19.8574 23.5209 19.7578C23.7984 19.4129 24.2994 18.7461 24.7464 17.9107C24.9699 17.4892 25.178 17.0293 25.3322 16.5465C25.4864 16.0636 25.5943 15.5501 25.5943 15.0213C25.5943 14.753 25.5634 14.4848 25.5018 14.2165C25.4401 13.9483 25.3399 13.6877 25.2012 13.4271C25.0547 13.1665 24.8774 12.9212 24.6771 12.7066C24.3687 12.3847 24.0142 12.1088 23.6365 11.9172C23.4438 11.8176 23.2511 11.7409 23.0508 11.6796C22.8504 11.626 22.6422 11.5876 22.4341 11.5876C22.2106 11.5876 21.9794 11.626 21.7559 11.7256C21.6326 11.7793 21.5169 11.8559 21.4167 11.9402C21.2395 12.0858 21.093 12.2698 20.9851 12.4614C20.8155 12.7526 20.7076 13.0822 20.6383 13.4347C20.5689 13.7873 20.5381 14.1629 20.5381 14.5461C20.5381 15.0136 20.5843 15.4964 20.6691 15.9793C20.7539 16.4621 20.8849 16.9297 21.0468 17.3742C21.2395 17.8954 21.5169 18.4165 21.8484 18.9147C22.3494 19.6658 22.9737 20.3633 23.7136 20.8921C24.0836 21.1527 24.4767 21.375 24.8929 21.5359C25.3091 21.6892 25.7484 21.7812 26.2032 21.7812C26.3727 21.7812 26.55 21.7658 26.7273 21.7429C27.1512 21.6739 27.552 21.5283 27.922 21.3366C28.4769 21.0454 28.9702 20.6469 29.3479 20.1947C29.5328 19.9647 29.687 19.7271 29.8026 19.4742C29.9182 19.2213 29.9876 18.9454 29.9876 18.6618C29.9876 18.5315 29.9722 18.4012 29.9336 18.2709C29.872 18.0487 29.7718 17.857 29.6407 17.6961C29.4481 17.4432 29.2014 17.2516 28.9239 17.1059C28.6465 16.9603 28.3382 16.8684 28.0144 16.8684C27.8757 16.8684 27.7293 16.8837 27.5905 16.9297C27.4364 16.9757 27.2899 17.0446 27.1666 17.1289C26.9431 17.2822 26.7581 17.4738 26.604 17.6961C26.3727 18.0257 26.1954 18.4165 26.0721 18.8381C25.9488 19.2596 25.8794 19.7118 25.8794 20.1717C25.8794 20.5396 25.9257 20.8998 26.0259 21.2523C26.1261 21.6049 26.2879 21.9421 26.5346 22.241C26.8352 22.6166 27.2437 22.9002 27.7061 23.0841C28.1686 23.268 28.6927 23.3677 29.24 23.3677C30.373 23.3677 31.637 22.9615 32.7623 22.0571C33.009 21.8578 33.0475 21.4976 32.8471 21.2523C32.6467 21.0071 32.2845 20.9688 32.0378 21.168C31.1129 21.9115 30.0955 22.218 29.24 22.218C28.8237 22.218 28.4538 22.1491 28.1455 22.0188C27.8372 21.8961 27.5982 21.7199 27.4364 21.5206C27.3053 21.3596 27.2051 21.1604 27.1435 20.9304C27.0741 20.7005 27.0433 20.4399 27.0433 20.164C27.0433 19.9034 27.0741 19.6352 27.1281 19.3822C27.2129 18.999 27.3593 18.6541 27.5134 18.4089C27.5905 18.2863 27.6753 18.1943 27.7524 18.1253C27.8295 18.064 27.8834 18.0333 27.9297 18.018C27.9528 18.0103 27.9836 18.0027 28.0299 18.0027C28.0915 18.0027 28.1763 18.018 28.2688 18.0487C28.3998 18.0946 28.5463 18.179 28.6542 18.2786C28.7081 18.3246 28.7467 18.3782 28.7775 18.4242C28.8083 18.4702 28.8237 18.5162 28.8392 18.5468C28.8469 18.5775 28.8546 18.6082 28.8546 18.6465C28.8546 18.7001 28.8469 18.7768 28.816 18.8611C28.7698 19.0067 28.6773 19.1906 28.5309 19.3746C28.3227 19.6505 28.0067 19.9341 27.6599 20.1563C27.3131 20.3786 26.92 20.5319 26.5654 20.5932C26.4498 20.6085 26.3342 20.6162 26.2263 20.6162C25.8255 20.6162 25.4247 20.5089 25.0162 20.3096C24.7156 20.164 24.4073 19.9571 24.1221 19.7195C23.6905 19.3593 23.2897 18.9071 22.9506 18.4319C22.6114 17.949 22.3417 17.4355 22.1567 16.9527C22.0179 16.5848 21.91 16.1786 21.833 15.7647C21.7559 15.3508 21.7173 14.9293 21.7173 14.5384C21.7173 14.2931 21.7328 14.0556 21.7636 13.841C21.8098 13.5191 21.8869 13.2508 21.9871 13.0745C22.0333 12.9826 22.0873 12.9136 22.1335 12.8676C22.1798 12.8216 22.2183 12.7909 22.2646 12.7756C22.3108 12.7526 22.3802 12.7373 22.4727 12.7373C22.5883 12.7373 22.7347 12.7603 22.8966 12.8216C23.1432 12.9059 23.413 13.0669 23.6519 13.2738C23.8909 13.4807 24.099 13.726 24.2377 13.9712C24.3225 14.1322 24.3842 14.2931 24.4304 14.4694C24.4689 14.6457 24.4921 14.822 24.4921 15.0136C24.4921 15.4351 24.3919 15.9027 24.23 16.3548C23.9834 17.0446 23.598 17.7114 23.2511 18.2326C23.0739 18.4932 22.912 18.7155 22.781 18.8841C22.7193 18.9684 22.6577 19.0374 22.6114 19.0987C22.5652 19.1523 22.5343 19.1983 22.5112 19.2213C21.9563 19.8881 21.3397 20.4169 20.6922 20.8385C19.7288 21.4746 18.7268 21.8808 17.8404 22.1337C16.954 22.3867 16.191 22.494 15.7208 22.5399C15.4048 22.5706 15.1736 22.8542 15.2044 23.1684C15.189 23.5133 15.4742 23.7356 15.7979 23.7049Z" fill="white"/>
</g>
<defs>
<clipPath id="clip0_1596_22170">
<rect width="30.7071" height="40" fill="white" transform="translate(9 4)"/>
</clipPath>
</defs>
</svg>
