<svg width="48" height="48" viewBox="0 0 48 48" fill="none" xmlns="http://www.w3.org/2000/svg">
<path d="M40.775 8.55463C40.775 7.99901 40.775 7.55451 40.5527 7.11001C39.9971 5.77652 38.2191 5.33203 36.5523 5.10978C28.9958 3.77629 21.2171 3.66516 13.5495 4.66528C11.5493 4.88753 9.43795 5.33203 8.43783 6.88777C7.88221 7.55451 7.77108 8.44351 7.65996 9.22138C6.21534 19.8893 7.65996 24.3343 7.21546 35.1133C7.10434 36.6691 7.10434 38.3359 7.65996 39.8917C8.21558 41.3363 9.6602 42.6698 11.4382 42.892V42.6698C12.5494 43.1143 13.8829 43.3365 15.1053 43.4476C22.6617 44.1144 26.7733 44.1144 34.3298 43.781C35.5522 43.6699 36.8856 43.5588 37.9969 43.0031C40.5527 41.6697 40.775 38.6693 40.775 36.1134C40.8861 24.8899 40.8861 19.7782 40.775 8.55463Z" fill="#FF9C00"/>
<path d="M21.106 14.6664C20.5504 14.6664 19.8837 14.6664 19.328 15.1109C18.7724 15.5554 18.439 16.4444 18.7724 17.1112C19.1058 17.7779 19.7725 17.889 20.4393 17.889L28.6625 18.0002C30.5516 18.0002 32.5518 18.0002 34.3298 16.8889C34.5521 16.7778 34.7743 16.5556 34.8854 16.2222C34.8854 15.9999 34.8854 15.8888 34.7743 15.7777C34.7743 15.6666 34.6632 15.4443 34.5521 15.3332C33.4408 13.9997 31.774 13.9997 30.3293 13.9997L21.106 14.4442" fill="#FFE1AF"/>
<path d="M16.661 14.6664C16.661 14.5553 16.661 14.5553 16.661 14.4442C16.5499 14.333 16.4388 14.333 16.2165 14.333C15.4387 14.2219 14.5497 14.1108 13.7718 14.333C13.5495 14.333 13.3273 14.4442 13.2162 14.5553C13.2162 14.6664 13.1051 14.7775 13.1051 14.8886C12.9939 16.2221 13.1051 15.5554 13.1051 16.7778C13.1051 17 13.1051 17.2223 13.1051 17.3334C13.2162 17.5556 13.3273 17.6668 13.5495 17.6668C13.6607 17.7779 13.7718 17.7779 13.994 17.7779C14.7719 17.889 15.2164 17.889 16.1054 17.7779C16.2165 17.7779 16.4388 17.7779 16.5499 17.6668C16.7722 17.5556 16.8833 17.1111 16.8833 16.7778C16.661 15.4443 16.661 16.111 16.661 14.6664Z" fill="#FFE1AF"/>
<path d="M21.106 23.0008C20.5504 23.0008 19.8837 23.0008 19.328 23.4453C18.7724 23.8898 18.439 24.7788 18.7724 25.4455C19.1058 26.1123 19.7725 26.2234 20.4393 26.2234L28.6625 26.3345C30.5516 26.3345 32.5518 26.3345 34.3298 25.2233C34.5521 25.1121 34.7743 24.8899 34.8854 24.5565C34.8854 24.3343 34.8854 24.2231 34.7743 24.112C34.7743 24.0009 34.6632 23.7786 34.5521 23.6675C33.4408 22.2229 31.774 22.2229 30.3293 22.334L21.106 22.7785" fill="#FFE1AF"/>
<path d="M16.661 23.0008C16.661 22.8897 16.661 22.8897 16.661 22.7785C16.5499 22.6674 16.4388 22.5563 16.2165 22.5563C15.4387 22.4452 14.5497 22.334 13.7718 22.5563C13.5495 22.5563 13.3273 22.6674 13.2162 22.7785C13.2162 22.8897 13.1051 23.0008 13.1051 23.1119C12.9939 24.4454 13.1051 23.7787 13.1051 25.001C13.1051 25.2233 13.1051 25.4455 13.1051 25.5566C13.2162 25.7789 13.3273 25.89 13.5495 25.89C13.6607 26.0011 13.7718 26.0011 13.994 26.0011C14.7719 26.1123 15.2164 26.1123 16.1054 26.0011C16.2165 26.0011 16.4388 26.0011 16.5499 25.89C16.7722 25.7789 16.8833 25.3344 16.8833 25.001C16.661 23.7787 16.661 24.3343 16.661 23.0008Z" fill="#FFE1AF"/>
<path d="M21.106 31.2239C20.5504 31.2239 19.8837 31.2239 19.328 31.6684C18.7724 32.1129 18.439 33.0019 18.7724 33.6687C19.1058 34.3354 19.7725 34.4465 20.4393 34.4465L28.6625 34.5577C30.5516 34.5577 32.5518 34.5577 34.3298 33.4464C34.5521 33.3353 34.7743 33.113 34.8854 32.7797C34.8854 32.5574 34.8854 32.4463 34.7743 32.3352C34.7743 32.224 34.6632 32.0018 34.5521 31.8907C33.4408 30.4461 31.774 30.4461 30.3293 30.5572L21.106 31.0017" fill="#FFE1AF"/>
<path d="M16.661 31.2239C16.661 31.1128 16.661 31.1128 16.661 31.0017C16.5499 30.8906 16.4388 30.7794 16.2165 30.7794C15.4387 30.6683 14.5497 30.5572 13.7718 30.7794C13.5495 30.7794 13.3273 30.8906 13.2162 31.0017C13.2162 31.1128 13.1051 31.2239 13.1051 31.3351C12.9939 32.6686 13.1051 32.0018 13.1051 33.2242C13.1051 33.4464 13.1051 33.6687 13.1051 33.7798C13.2162 34.002 13.3273 34.1132 13.5495 34.1132C13.6607 34.2243 13.7718 34.2243 13.994 34.2243C14.7719 34.3354 15.2164 34.3354 16.1054 34.2243C16.2165 34.2243 16.4388 34.2243 16.5499 34.1132C16.7722 34.002 16.8833 33.5575 16.8833 33.2242C16.661 32.0018 16.661 32.6686 16.661 31.2239Z" fill="#FFE1AF"/>
</svg>
