<svg width="481" height="105" viewBox="0 0 481 105" fill="none" xmlns="http://www.w3.org/2000/svg">
    <g clip-path="url(#a)">
        <path d="M108.9 41.5c0 11.6-6 16.7-17.7 17.1-12.9.5-13.4 2.6-13.4-17 0-18.6-.1-16.3 11.9-16.3 13.5 0 19.2 5.9 19.2 16.2zm20.6.1c-.1-19.6-13.4-29.7-38.1-29.7H42.9C18.6 12.1 0 31.7 0 52c.1 15.7 8.8 25.4 25.6 25.4 13.3 0 21.6-7.5 21.4-17.4 0-7.3-4.2-12-9.2-12-5.6 0-8 4.2-9.1 7.9-.8 5.3-2.4 7.7-6.6 7.7-4.8 0-7.6-3.8-7.6-11 0-14.6 9.4-27.2 28.4-27 14.5 0 14.6-.4 14.7 5.5v51.6c0 6.7-.4 7.1-6.3 8.4-5.6.9-7.4 1.5-7.4 6.4 0 5.2 1.9 5 22.9 5 23.3 0 24.9.4 24.9-5.6 0-4-1.2-4.7-7.6-5.6-7-1.1-6.3-1.1-6.3-14.3 0-7.5-1.3-6.6 13-6.5 26.9.2 38.8-10 38.7-28.9zm40.6 36.2c0 7.1-4.4 12.6-11.4 12.6-5 0-7.8-2.6-7.8-7.8 0-5.8 4.4-9.4 12.4-9.4 4.5-.1 6.8-.1 6.8 4.6zm28.5 13.5c0-3.2-.3-4.9-2.7-4.9h-.4c-1.5 0-2 .7-3.9.6-2.1 0-3.7-1.4-3.7-4.5 0-3.7 1.3-16.9 1.3-25.9.1-14.5-8.2-21.9-26.1-21.9-9.7 0-17.7 2-23.5 6.1-4.3 2.9-7.4 7-7.4 12.1 0 6.1 4.5 8.7 10.3 8.7 5.1 0 7.4-2.6 8.5-6.9 1.3-5 3.6-6.5 8.2-6.5 7.6 0 11 3.6 11.2 11.2 0 5.8-.6 6.5-2.5 6.5-2.3 0-4.9-1.2-13.4-1.2-14.7 0-22.9 8.1-22.9 20.5 0 10.7 5.6 19.5 20.4 19.5 7.2 0 11.3-2.6 13.9-5.5 2.2-2.8 2.7-5 4.5-5 1.7 0 1.6 2.2 3.9 5.2 2.7 3.6 5.6 5.1 10 5.1 9-.1 14.3-8.2 14.3-13.2zm76.8-80.2C275.4 5.2 271 0 261.3 0c-17.6 0-28.6 18.7-32.5 37.7-.9 4-1 6.3-2.2 6.3-1.3 0-1.4-1-1.6-4.2-.6-4.9-2.4-6.5-5.2-6.5-3.6 0-8.6 1.7-12.8 4.5-4.3 2.6-7.9 5-7.9 8.3 0 3.5 4 2.7 9.4 3.2 3.2.4 3.5 1.2 3.5 4.2 0 6-.1 21.3-.3 28.1-.1 7.2.2 7.8-4.9 9.4-4.5 1.4-5.8 1.9-5.8 5.2 0 7.3 2.3 6.3 20.9 6.3 21.6 0 22.7.9 22.7-7.1 0-3-1.2-3.2-6.6-4.5-6.3-1.7-6.2-1.7-6.2-9.2v-11c0-21.8 8.4-51.4 25.3-51.4 3.2 0 4.9 1.3 7.8 1.3 7.2.1 10.4-4.2 10.5-9.5zm15.7 49.4c0 3.2-1.3 2.5-16.8 2.5-7.8 0-9 .7-9.1-1.2-.4-8.5 5-14.1 12-14.1 7.9-.1 13.9 6.1 13.9 12.8zm19 3.7c0-18.5-11.6-29.9-30-29.9-22.2 0-33.8 17.5-33.8 36.5 0 19.6 13.6 33.8 33.7 33.8 13.7 0 24.3-6.1 26.7-15.6.9-3.2.6-6.5-2-6.5-1.3 0-2.7 1-4.4 1.8-3.1 1.6-7.5 3.4-15.2 3.4-11.5 0-20-5.5-20.1-11.5-.1-2 .5-2.6 2.5-2.6h31.4c9.3.1 11.2-1.2 11.2-9.4zm79.2 27.1c-4.8-1.6-4.7-2.2-4.9-9.4v-2.8c0-9.2.8-15.8.8-23.8 0-12.1-8.8-20.2-22.3-20.2-8.1 0-13.1 3.3-15.9 6.6-3.3 4-3.3 5.9-5 5.9-1.7 0-1.1-2.6-1.1-5.1 0-4.2-3.1-6.9-8.7-6.9-3.7 0-7.5 1.6-11.2 4.2-4.9 3.4-6.9 6.4-6.9 9.2 0 4.3 2.7 5.2 7.1 5.2 3.7.1 4.7.5 4.7 4.2v23.7c0 8.7-1.4 7.8-6.1 9.4-4 1.4-5.2 1.6-5.2 4.9 0 2.4.1 4.3 1.6 5.2 2.3 1.3 7 1.2 22.5 1.1 9.1 0 12.6 0 12.6-7.1 0-3-1.1-2.9-4-4.2-3.4-1.7-3.4-1.7-3.4-9.2V69.8c0-9.6 3.7-18.4 13.4-18.4 6.4 0 8.6 4 8.6 11v18.9c0 7.5 0 8.3-3.5 10.1-3 1.3-4 1.2-4 4.2 0 7.9 3.5 7.1 12.8 7.1 20.4 0 23.4 1 23.4-6.3.1-3.5-1.1-3.7-5.3-5.1zM423 79.4c0-3.9.1-10.4.1-16.3 0-9.6-1.8-9.3 7.1-9.3 11.8 0 14.8.4 15-5.3.1-2.6.5-4 .5-6.3 0-4.8-2.8-4.7-12-4.7-8.5 0-9.1 1-9.1-4 0-4.3-1.5-5.6-3.8-5.6-4.9 0-7.4 4.9-14.3 8.5-10.1 5-13.9 3.2-13.9 10.8 0 4.4.2 6 6.9 6 4.8 0 5-.5 4.9 6.7 0 8.7-.9 16.2-.9 23.2 0 12.9 9.1 21.6 22.8 21.6 12.1 0 19.6-7.2 19.7-14.8 0-3.2-1-4.2-2.8-4.2-2.6 0-5.9 2.2-11.4 2.2-6.2-.1-8.8-3.5-8.8-8.5zm36.5-38.3h3.8v-2.6h-10.9v2.6h3.8v10.8h3.3V41.1zm21 10.7V38.5h-4.4l-3.3 8.8-3.3-8.8H465v13.4h3.1v-9.5h.1l3.4 9.5h2.2l3.4-9.5h.1v9.5h3.2v-.1z" fill="#FF9C00"/>
    </g>
    <defs>
        <clipPath id="a">
            <path fill="#fff" d="M0 0h480.5v104.6H0z"/>
        </clipPath>
    </defs>
</svg>
