<svg width="24" height="25" viewBox="0 0 24 25" fill="none" xmlns="http://www.w3.org/2000/svg">
<path fill-rule="evenodd" clip-rule="evenodd" d="M12.7499 3.5H19.8333C21.0833 3.5 21.9999 4.50493 21.9999 5.67734V10.1995C21.9999 11.1207 21.3333 11.9581 20.4166 12.2931V13.4655C20.4166 13.968 20.1666 14.3867 19.7499 14.5542C19.6666 14.6379 19.4999 14.6379 19.3333 14.6379C18.9999 14.6379 18.7499 14.5542 18.4999 14.303L16.9166 12.7118V9.94828C16.9166 7.68719 15.0833 5.92857 12.9166 5.92857H10.5833V5.67734C10.5833 4.42118 11.5833 3.5 12.7499 3.5ZM3.83333 19.3276V17.8202C2.75 17.569 2 16.6478 2 15.4754V10.1158C2 8.77587 3.08333 7.68719 4.41667 7.68719H12.6667C14 7.68719 15.0833 8.77587 15.0833 10.1158V15.4754C15.0833 16.8153 14 17.9039 12.6667 17.9039H8.08333L5.83333 20.165C5.66667 20.3325 5.33333 20.5 5 20.5C4.33333 20.5 3.83333 19.9975 3.83333 19.3276Z" fill="#B9B1C4"/>
</svg>
