<svg width="25" height="24" viewBox="0 0 25 24" fill="none" xmlns="http://www.w3.org/2000/svg">
<path fill-rule="evenodd" clip-rule="evenodd" d="M22.5 5.08333C22.5 3.41667 21.0833 2 19.4167 2H5.58333C4.75 2 4 2.33333 3.41667 2.91667C2.83333 3.5 2.5 4.25 2.5 5.08333V18.9167C2.5 20.5833 3.91667 22 5.58333 22H19.4167C21.0833 22 22.5 20.5833 22.5 18.9167V5.08333ZM19.4167 20.3333H5.58333C4.83333 20.3333 4.16667 19.6667 4.16667 18.9167V8H20.8333V18.9167C20.8333 19.6667 20.1667 20.3333 19.4167 20.3333ZM17.9167 16.5833H7.08333C6.58333 16.5833 6.25 16.9166 6.25 17.4166C6.25 17.9166 6.58333 18.25 7.08333 18.25H17.9167C18.4167 18.25 18.75 17.9166 18.75 17.4166C18.75 16.9166 18.3333 16.5833 17.9167 16.5833ZM17.9167 15H13.5833C13.0833 15 12.75 14.6666 12.75 14.1666C12.75 13.6666 13.0833 13.3333 13.5833 13.3333H17.9167C18.4167 13.3333 18.75 13.6666 18.75 14.1666C18.75 14.6666 18.4167 15 17.9167 15ZM13.5833 11.75H17.9167C18.4167 11.75 18.75 11.4166 18.75 10.9166C18.75 10.4166 18.4167 10.0833 17.9167 10.0833H13.5833C13.0833 10.0833 12.75 10.4166 12.75 10.9166C12.75 11.4166 13.0833 11.75 13.5833 11.75ZM7.16667 15.0834H10.25C10.75 15.0834 11.1667 14.6667 11.1667 14.1667V11.0834C11.1667 10.5834 10.75 10.1667 10.25 10.1667H7.16667C6.66667 10.1667 6.25 10.5834 6.25 11.0834V14.1667C6.25 14.6667 6.66667 15.0834 7.16667 15.0834Z" fill="#8C17FF"/>
</svg>
