<svg width="24" height="25" viewBox="0 0 24 25" fill="none" xmlns="http://www.w3.org/2000/svg">
<path d="M19.8033 17.9622L19.6235 17.5077C18.5448 15.1441 18.0055 12.6895 18.0055 10.0531C18.0055 7.32587 16.2977 4.87132 13.6909 4.05314C13.601 3.14405 12.792 2.41678 11.8932 2.50769C11.0842 2.5986 10.3651 3.23496 10.2752 4.05314C7.75833 4.87132 5.96057 7.23496 5.96057 9.96223V10.1441C5.96057 12.6895 5.42125 15.235 4.3426 17.5986L4.16282 17.9622C3.89316 18.5077 3.98305 19.1441 4.25271 19.5986C4.52237 20.1441 5.15159 20.4168 5.69091 20.4168H9.01675C9.55608 22.0531 11.3538 22.9622 13.0617 22.3259C13.9606 21.9622 14.6797 21.3259 14.9493 20.4168H18.2752C19.1741 20.4168 19.983 19.6895 19.983 18.6895C19.983 18.4168 19.8932 18.1441 19.8033 17.9622Z" fill="#B9B1C4"/>
</svg>
