<svg width="24" height="24" viewBox="0 0 24 24" fill="none" xmlns="http://www.w3.org/2000/svg">
<path d="M20.5833 9.91667H20.4167C19.8333 9.91667 19.3333 9.58333 19.0833 9C18.8333 8.5 18.9167 7.83333 19.3333 7.41667L19.4167 7.33333C19.9167 6.75 19.9167 5.91667 19.4167 5.33333L18.5 4.41667C18 3.91667 17.0833 3.91667 16.5833 4.41667L16.5 4.5C16.0833 4.91667 15.5 5 15 4.83333C15 4.83333 14.9167 4.83333 14.9167 4.75C14.4167 4.58333 14.0833 4 14.0833 3.5V3.41667C14.0833 2.66667 13.5 2 12.6667 2H11.3333C10.5833 2 9.91667 2.58333 9.91667 3.41667V3.58333C9.91667 4.16667 9.58333 4.66667 9.08333 4.83333C9 4.83333 9 4.83333 9 4.91667C8.5 5.08333 7.83333 4.91667 7.5 4.58333L7.33333 4.41667C6.83333 3.91667 5.91667 3.83333 5.41667 4.41667L4.41667 5.41667C3.91667 5.91667 3.91667 6.83333 4.5 7.33333L4.58333 7.41667C5 7.83333 5.08333 8.41667 4.83333 9C4.58333 9.58333 4.08333 9.91667 3.58333 9.91667H3.41667C2.66667 9.91667 2 10.5833 2 11.3333V12.6667C2 13.4167 2.66667 14.0833 3.41667 14.0833H3.58333C4.16667 14.0833 4.66667 14.4167 4.91667 15C5.16667 15.5 5.08333 16.1667 4.66667 16.5833L4.58333 16.6667C4.08333 17.1667 4.08333 18.0833 4.58333 18.6667L5.41667 19.5C5.91667 20 6.83333 20 7.33333 19.5L7.41667 19.4167C7.83333 19 8.41667 18.9167 8.91667 19.0833C8.91667 19.0833 9 19.0833 9 19.1667C9.5 19.3333 9.83333 19.9167 9.83333 20.4167V20.5833C9.83333 21.3333 10.4167 22 11.25 22H12.5833C13.3333 22 14 21.4167 14 20.5833V20.4167C14 19.8333 14.3333 19.3333 14.8333 19.1667C14.8333 19.1667 14.9167 19.1667 14.9167 19.0833C15.4167 18.8333 16 19 16.4167 19.4167L16.5 19.5C17 20 17.9167 20 18.4167 19.5L19.3333 18.5833C19.8333 18 19.8333 17.1667 19.3333 16.5833L19.25 16.5C18.8333 16.0833 18.75 15.5 19 14.9167C19.25 14.4167 19.75 14 20.3333 14H20.5C21.25 14 21.9167 13.4167 21.9167 12.5833V11.25C22 10.5833 21.4167 9.91667 20.5833 9.91667ZM12 15.0833C10.3333 15.0833 8.91667 13.6667 8.91667 12C8.91667 10.3333 10.3333 8.91667 12 8.91667C13.6667 8.91667 15.0833 10.3333 15.0833 12C15.0833 13.6667 13.6667 15.0833 12 15.0833Z" fill="#B9B1C4"/>
</svg>
