<svg xmlns="http://www.w3.org/2000/svg" width="25" height="33" viewBox="0 0 25 33">
    <g fill="none" fill-rule="evenodd">
        <g>
            <g>
                <g>
                    <g>
                        <g>
                            <g>
                                <g>
                                    <path fill="#FF5722" fill-rule="nonzero" d="M25 32.813L0 32.813 0 0 17.188 0 25 7.813z" transform="translate(-652.000000, -510.000000) translate(304.000000, 0.000000) translate(30.000000, 315.000000) translate(20.000000, 178.000000) translate(180.000000, 0.000000) translate(90.000000, 0.000000) translate(28.000000, 17.000000)"/>
                                    <path fill="#FBE9E7" fill-rule="nonzero" d="M23.828 8.594L16.406 8.594 16.406 1.172z" transform="translate(-652.000000, -510.000000) translate(304.000000, 0.000000) translate(30.000000, 315.000000) translate(20.000000, 178.000000) translate(180.000000, 0.000000) translate(90.000000, 0.000000) translate(28.000000, 17.000000)"/>
                                    <path stroke="#FFF" stroke-width="2" d="M20.313 22.266c0-3.282-17.813 3.203-14.454 5C8.594 28.75 15.156 12.5 11.875 12.5c-3.203 0 2.031 10.625 6.875 10.625 1.172 0 1.563-.234 1.563-.86z" transform="translate(-652.000000, -510.000000) translate(304.000000, 0.000000) translate(30.000000, 315.000000) translate(20.000000, 178.000000) translate(180.000000, 0.000000) translate(90.000000, 0.000000) translate(28.000000, 17.000000)"/>
                                </g>
                            </g>
                        </g>
                    </g>
                </g>
            </g>
        </g>
    </g>
</svg>
