<svg width="48" height="48" viewBox="0 0 48 48" fill="none" xmlns="http://www.w3.org/2000/svg">
<g clip-path="url(#clip0_1596_22176)">
<path d="M32.9132 7.20462C30.4975 6.95248 28.1958 5.96834 26.4146 4.4718C25.5362 3.73166 24.1454 3.89433 23.4459 4.77273C21.8355 6.78981 18.9888 8.04235 16.1828 8.11555C13.5069 8.18062 10.9123 7.36728 8.59432 6.11474C7.42311 5.48034 5.96724 6.27741 5.99977 7.49742C6.2031 14.5735 7.19538 21.6251 8.95219 28.5222C9.61099 31.1168 10.3999 33.7276 11.9046 36.0131C13.8973 39.055 17.0368 41.3486 20.3471 43.2111C21.0547 43.6097 21.8192 44.0082 22.6569 43.9919C23.4052 43.9757 24.0884 43.6341 24.7228 43.2762C29.9526 40.2668 33.45 35.3217 36.1258 30.2465L38.2975 25.4397C39.6639 22.7069 40.3633 19.7382 40.9001 16.7695C41.4044 13.9716 41.7623 11.1574 41.9819 8.33516C42.0957 6.83861 40.4284 5.74061 38.9156 6.35061C37.0287 7.10701 34.9465 7.41608 32.9132 7.20462Z" fill="#D5C6FF"/>
<path d="M19.005 20.3318C18.452 19.9414 17.8501 19.5591 17.1588 19.4778C16.4674 19.3965 15.6622 19.7218 15.4751 20.3318C15.3369 20.7873 15.5565 21.2672 15.7761 21.6982C17.3702 24.854 18.9644 28.0097 20.5585 31.1655C20.6642 31.3688 20.7862 31.5965 21.014 31.6779C21.1929 31.743 21.3963 31.7104 21.5833 31.6616C23.8932 31.1248 25.6744 29.4737 27.1954 27.8145C29.9932 24.7482 32.3763 21.3648 34.2551 17.7698C34.5398 17.2249 34.8163 16.5823 34.5479 16.0292C34.247 15.403 33.3686 15.1752 32.6122 15.2566C31.319 15.3867 30.1966 16.1513 29.3995 17.0785C28.5943 18.0057 28.0656 19.0955 27.4719 20.1447C26.0323 22.7068 24.2185 25.0898 22.0957 27.2289C21.9819 25.5046 21.2986 23.8617 20.6154 22.2513C20.1925 21.259 19.9973 21.4217 19.1514 20.4701" fill="#3D0671"/>
</g>
<defs>
<clipPath id="clip0_1596_22176">
<rect width="35.974" height="40" fill="white" transform="translate(6 4)"/>
</clipPath>
</defs>
</svg>
