<svg xmlns="http://www.w3.org/2000/svg" width="25" height="33" viewBox="0 0 25 33">
    <g fill="none" fill-rule="evenodd">
        <g fill-rule="nonzero">
            <g>
                <g>
                    <g>
                        <g>
                            <g>
                                <g>
                                    <path fill="#FF6D00" d="M25 32.813L0 32.813 0 0 17.188 0 25 7.813z" transform="translate(-832.000000, -510.000000) translate(304.000000, 0.000000) translate(30.000000, 315.000000) translate(20.000000, 178.000000) translate(180.000000, 0.000000) translate(270.000000, 0.000000) translate(28.000000, 17.000000)"/>
                                    <path fill="#FFF3E0" d="M23.828 8.594L16.406 8.594 16.406 1.172z" transform="translate(-832.000000, -510.000000) translate(304.000000, 0.000000) translate(30.000000, 315.000000) translate(20.000000, 178.000000) translate(180.000000, 0.000000) translate(270.000000, 0.000000) translate(28.000000, 17.000000)"/>
                                    <path fill="#FFF" d="M10.978 21.608V25h-2.41v-9.998h3.989c.765 0 1.441.141 2.029.423.589.28 1.044.682 1.367 1.2.322.521.484 1.11.484 1.77 0 .975-.35 1.754-1.047 2.337-.7.584-1.656.876-2.874.876h-1.538zm0-1.861h1.579c.467 0 .823-.117 1.067-.35.246-.234.368-.563.368-.99 0-.466-.126-.839-.377-1.119-.252-.28-.595-.42-1.03-.425h-1.607v2.884z" transform="translate(-832.000000, -510.000000) translate(304.000000, 0.000000) translate(30.000000, 315.000000) translate(20.000000, 178.000000) translate(180.000000, 0.000000) translate(270.000000, 0.000000) translate(28.000000, 17.000000)"/>
                                </g>
                            </g>
                        </g>
                    </g>
                </g>
            </g>
        </g>
    </g>
</svg>
