<svg width="48" height="48" viewBox="0 0 48 48" fill="none" xmlns="http://www.w3.org/2000/svg">
<path d="M42.912 4.74037C41.8453 3.90836 39.9449 3.93656 38.2847 4.07758C38.2776 4.07758 38.2706 4.07758 38.2706 4.07758C36.7234 4.04938 34.6605 4.87434 31.9689 4.92369C29.3197 4.97305 26.5927 5.31149 25.1303 6.39734C24.8195 6.59477 24.5157 6.8204 24.2331 7.04603C17.338 12.4612 11.4037 18.9903 5.89332 25.8015C5.0173 26.8803 4.12716 28.0649 4.01413 29.4469C3.83045 31.7102 5.7167 33.5153 7.54645 34.9255C7.55351 34.9325 7.56058 34.9396 7.56058 34.9396C9.02296 36.4837 10.4924 38.0349 11.9548 39.5791C14.1448 41.8918 16.8718 44.4019 20.0226 43.9366C22.2409 43.6052 23.9435 41.8636 25.4694 40.2207C30.0473 35.278 34.6323 30.3353 39.2102 25.3926C39.7047 24.8638 40.2063 24.3067 40.6019 23.6933C41.2024 22.8613 41.8735 21.3524 41.9866 20.9434C43.1452 16.9808 44.4875 10.8112 43.8163 6.61592C43.7174 5.96018 43.5691 5.25509 42.912 4.74037ZM39.083 13.0605C38.5249 14.5976 36.7022 15.5354 35.1197 15.1335C33.841 14.8091 32.7813 13.6246 32.7602 12.306L33.2547 10.7689C33.8198 9.23887 35.7697 8.39981 37.2886 9.00619C38.8075 9.61257 39.6411 11.5234 39.083 13.0605Z" fill="#FFCB6E"/>
<path d="M10.9022 31.2026C10.8386 31.4917 10.8033 31.8231 10.9799 32.0346C11.1353 32.2179 11.4037 32.2743 11.6651 32.2814C13.5655 32.3589 15.261 30.8289 16.6669 29.4187C20.2204 25.865 23.8022 22.262 26.4797 18.0737C26.8612 17.4814 27.2356 16.8398 27.2497 16.17C27.2639 15.5001 26.7905 14.8303 26.1053 14.8655C25.639 14.8937 25.2151 15.2251 24.8478 15.5354C19.5775 20.0127 14.9078 25.1811 11.0364 30.8148" fill="#8C17FF"/>
<path d="M23.4913 27.1976L18.1858 32.4506C16.3419 33.7903 15.6001 35.5812 17.0484 37.3792C17.2109 37.5837 17.4087 37.7811 17.6489 37.8657C18.094 38.0138 18.4543 37.6965 18.7298 37.4004C20.2063 35.7716 21.6899 34.1499 23.1664 32.5211C24.1554 31.4353 25.1727 30.293 25.4765 28.77C25.5825 28.2412 25.533 27.5572 25.0385 27.1835C24.551 26.8098 23.9505 26.9791 23.4913 27.1976Z" fill="#8C17FF"/>
</svg>
