<svg width="48" height="48" viewBox="0 0 48 48" fill="none" xmlns="http://www.w3.org/2000/svg">
<path d="M33.5855 9.27289C31.7488 4.97002 26.1211 2.72781 21.8867 4.68861L17.779 6.79466C15.1642 9.52707 14.9018 14.066 16.829 17.3158C19.2176 21.3373 24.8001 23.1165 29.0254 21.1285C33.2508 19.1314 35.4313 13.5758 33.5855 9.27289Z" fill="#4F6BD4"/>
<path d="M37.9592 26.9611C42.7826 29.3389 42.9305 35.0539 42.9972 39.4C43.0163 40.6212 42.9686 41.9932 41.8152 42.8624C40.6808 43.7317 38.8888 43.7963 37.2778 43.8035L15.9635 43.9328C12.3508 43.9543 7.11203 44.4465 6.29775 41.2749C4.86831 35.7071 8.40196 26.2715 20.903 25.1961C27.3911 24.6379 33.2502 24.6408 37.9592 26.9611Z" fill="#59E3B8"/>
</svg>
