<svg width="48" height="48" viewBox="0 0 48 48" fill="none" xmlns="http://www.w3.org/2000/svg">
<path d="M19.8617 16.0477C18.8056 13.5735 15.5696 12.2843 13.1349 13.4117L10.7729 14.6227C9.26941 16.1938 9.11854 18.8037 10.2267 20.6723C11.6001 22.9847 14.8101 24.0077 17.2396 22.8646C19.6692 21.7163 20.923 18.5218 19.8617 16.0477Z" fill="#00D4D3"/>
<path d="M22.3766 26.2183C25.15 27.5856 25.235 30.8717 25.2734 33.3707C25.2844 34.0729 25.2569 34.8618 24.5937 35.3616C23.9415 35.8614 22.9111 35.8986 21.9848 35.9027L9.72903 35.9771C7.65169 35.9894 4.63942 36.2725 4.17121 34.4488C3.34928 31.2473 5.38113 25.8218 12.5693 25.2035C16.2999 24.8825 19.6689 24.8842 22.3766 26.2183Z" fill="#00D4D3"/>
<path d="M40.9467 24.719C40.351 23.3235 38.5258 22.5963 37.1525 23.2322L35.8202 23.9153C34.9722 24.8015 34.8871 26.2735 35.5121 27.3275C36.2868 28.6318 38.0973 29.2088 39.4677 28.5641C40.8381 27.9164 41.5453 26.1145 40.9467 24.719Z" fill="#8C17FF"/>
<path d="M42.3652 30.4557C43.9295 31.2269 43.9775 33.0804 43.9991 34.49C44.0053 34.886 43.9898 35.331 43.6157 35.6129C43.2478 35.8948 42.6666 35.9158 42.1442 35.9181L35.2314 35.9601C34.0597 35.9671 32.3607 36.1267 32.0966 35.098C31.633 33.2923 32.779 30.2321 36.8334 29.8833C38.9377 29.7023 40.8379 29.7032 42.3652 30.4557Z" fill="#8C17FF"/>
<path d="M30.8585 20.9252C30.4651 20.0036 29.2598 19.5234 28.3528 19.9433L27.473 20.3944C26.913 20.9796 26.8568 21.9518 27.2696 22.6478C27.7812 23.5091 28.9768 23.8902 29.8818 23.4644C30.7868 23.0367 31.2538 21.8468 30.8585 20.9252Z" fill="#FF8800"/>
<path d="M30.8585 26.0656C30.4651 25.144 29.2598 24.6638 28.3528 25.0837L27.473 25.5348C26.913 26.12 26.8568 27.0922 27.2696 27.7882C27.7812 28.6495 28.9768 29.0306 29.8818 28.6048C30.7868 28.1771 31.2538 26.9872 30.8585 26.0656Z" fill="#FF8800"/>
</svg>
