<svg width="48" height="48" viewBox="0 0 48 48" fill="none" xmlns="http://www.w3.org/2000/svg">
<path d="M35.8924 28.8522C36.3439 28.876 36.7955 28.8283 37.2294 28.7029C38.4138 28.2911 38.8302 26.9602 39.053 25.8023C40.1788 20.1861 40.3019 14.4326 39.4165 8.78054C39.1996 7.34216 38.795 5.73667 37.4639 4.99659C36.8189 4.63849 36.0508 4.54896 35.3002 4.47734C25.7248 3.41498 21.6789 4.51315 12.0448 4.13715C10.6082 4.07746 9.13643 4.03569 7.77606 4.47734C6.41568 4.919 5.1843 5.95153 5.00839 7.28248L5.16671 7.27054C4.71521 8.08224 4.58621 9.04315 4.49239 9.96824C3.93534 15.5248 3.85325 18.5328 4.23439 24.1073C4.29889 25.0443 4.39271 26.0112 4.89698 26.8169C6.06386 28.6731 8.79634 28.8939 11.1125 28.8939C21.2274 28.8701 25.7717 28.8581 35.8924 28.8522Z" fill="#F6E9E3"/>
<path d="M40.037 14.1855C39.1741 12.172 36.5326 11.1213 34.5426 12.037L32.6114 13.0232C31.3845 14.3029 31.2612 16.4278 32.1652 17.9482C33.2864 19.8325 35.9103 20.666 37.8944 19.7327C39.8785 18.7993 40.8999 16.1989 40.037 14.1855Z" fill="#8C17FF"/>
<path d="M43.9993 30.144C43.9699 27.573 43.7175 24.5792 41.5632 23.1704C39.4617 21.7968 36.6441 22.6715 34.2021 22.0962C31.6545 21.4916 29.6411 19.1142 29.4591 16.5138C29.3887 15.4806 29.5648 14.4005 29.1891 13.4379C28.8134 12.4752 27.5044 11.7708 26.7296 12.4576L26.166 12.9096C24.8335 14.1951 24.8981 16.0266 25.1329 17.8639C25.3677 19.7012 26.213 21.4094 27.1757 22.9884C27.5807 23.6576 28.0269 24.3386 28.156 25.1075C28.5199 27.1797 26.6415 29.4103 27.6394 31.2535C28.4025 32.674 30.3397 32.8384 31.948 32.8266C35.112 32.8032 38.2818 32.7738 41.4517 32.7503C42.1678 32.7445 42.9661 32.7092 43.4768 32.1927C43.9875 31.6761 44.0051 30.8661 43.9993 30.144Z" fill="#00D4D3"/>
<path d="M43.671 37.6544C42.7584 35.4966 39.9729 34.3783 37.8734 35.3575L35.8394 36.4093C34.5451 37.7753 34.4139 40.048 35.3682 41.6801C36.5552 43.6929 39.3228 44.5874 41.4164 43.5901C43.504 42.5928 44.5896 39.8063 43.671 37.6544Z" fill="#8C17FF"/>
<path d="M30.2983 37.6544C29.3857 35.4966 26.6002 34.3783 24.5007 35.3575L22.4668 36.4093C21.1724 37.7753 21.0412 40.048 21.9955 41.6801C23.1825 43.6929 25.9501 44.5874 28.0437 43.5901C30.1313 42.5928 31.2109 39.8063 30.2983 37.6544Z" fill="#8C17FF"/>
<path d="M16.9256 37.6545C16.013 35.4966 13.2275 34.3784 11.1279 35.3576L9.09401 36.4093C7.79968 37.7754 7.66846 40.0481 8.6228 41.6801C9.80976 43.6929 12.5774 44.5875 14.6709 43.5902C16.7586 42.5928 17.8382 39.8063 16.9256 37.6545Z" fill="#8C17FF"/>
</svg>
