<svg width="48" height="48" viewBox="0 0 48 48" fill="none" xmlns="http://www.w3.org/2000/svg">
<g clip-path="url(#clip0_1596_22194)">
<path d="M7.53488 13.8752C4.55814 17.5915 3.34884 22.7014 4.37209 27.3468C5.30233 31.9922 8.46512 36.1731 12.6512 38.4028C17.0233 40.7255 22.1395 40.9113 27.0698 40.3539C30.6977 39.9823 34.4186 39.1461 37.3023 36.8234C39.7209 34.9653 41.3023 32.178 42.4186 29.2979C44.4651 24.0021 44.8372 17.4057 41.2093 13.039C39.2558 10.7163 36.3721 9.32273 33.5814 8.39366C25.9535 6.07096 17.2093 6.34969 10.4186 10.6234" fill="#FFCB6E"/>
<path d="M21.9535 24.9312C23.907 19.5425 25.5814 15.7333 28.3721 10.8092C28.6512 10.3447 29.0233 9.78723 29.5814 9.78723C30.1395 9.78723 30.6047 10.3447 30.6977 10.9021C30.7907 11.4596 30.6047 12.1099 30.4186 12.6674C28.5581 18.1489 26.2326 23.4447 23.4419 28.5546C23.2558 28.9262 22.8837 29.3908 22.5116 29.3908C22.2326 29.3908 22.0465 29.112 21.9535 28.9262C21.0233 27.7184 21.1163 25.9532 21.9535 24.9312Z" fill="#FF8800"/>
<path d="M21.7674 23.9093C24.4651 25.3029 27.1628 26.6965 29.8605 28.0901C30.7907 28.5547 31.7209 29.1121 32.3721 29.9483C33.0233 30.7844 33.3023 31.9922 32.7442 32.9213C32.093 33.2 31.4419 32.8284 30.8837 32.5497C27.5349 30.6915 24.1861 28.8334 20.9302 27.0681C20.4651 26.7894 20 26.5107 19.7209 26.0462C19.4419 25.4887 19.6279 24.8384 20.093 24.4667C20.4651 24.0022 21.3023 23.5376 21.7674 23.9093Z" fill="#FF8800"/>
</g>
<defs>
<clipPath id="clip0_1596_22194">
<rect width="40" height="33.7255" fill="white" transform="translate(4 7)"/>
</clipPath>
</defs>
</svg>
