<svg width="48" height="48" viewBox="0 0 48 48" fill="none" xmlns="http://www.w3.org/2000/svg">
<g clip-path="url(#clip0_1076_15130)">
<path d="M39.3226 18.214C37.8549 16.4826 35.7171 15.4514 33.5601 14.7448C33.5473 14.7385 33.541 14.7385 33.5282 14.7321H33.5665C31.9073 14.0956 31.652 12.7588 31.5882 11.1675C31.5244 9.57609 33.1198 10.0853 33.8856 6.64798C34.6513 3.21063 28.6527 3.91083 26.9935 4.61103C25.8193 5.10754 25.9533 4.96113 25.1364 4.70015C25.0088 4.66195 24.7535 4.54738 23.4836 4.35641C21.5883 4.06997 20.6438 3.92356 19.8589 4.03814C19.0995 4.15272 18.2826 4.2673 17.9317 4.86565C17.5743 5.47037 17.7657 6.29788 18.1933 7.02991C18.64 7.79376 20.044 9.51244 20.1716 11.8677C20.2928 14.051 18.0529 15.2605 17.7274 15.4196C17.7147 15.426 17.7019 15.4323 17.6892 15.4387C17.1978 15.6806 16.7128 15.9479 16.2469 16.2407L14.0644 18.6787C11.8181 21.4731 10.9119 25.267 11.6458 28.7616C12.3797 32.2562 14.7345 35.3753 17.8934 37.0367C21.1607 38.7554 25.0407 38.9145 28.7165 38.5135C31.4414 38.2143 34.2429 37.5905 36.3999 35.9036C38.2059 34.4905 39.412 32.4472 40.2544 30.3211C41.8178 26.3618 42.0731 21.4604 39.3226 18.214Z" fill="#FFCB6E"/>
<path d="M30.6119 13.5418C28.7867 14.1592 27.3764 14.382 25.9087 14.4139C24.4409 14.4266 22.9221 14.2483 20.9055 13.5545C20.5162 13.4208 20.1014 13.1408 19.8526 12.7588C19.5845 12.3451 19.6994 11.9377 19.9674 11.8104C20.2355 11.6831 20.6375 11.6831 21.0012 11.7467C24.4792 12.2687 27.0573 12.3769 30.8416 11.664C31.1415 11.6003 31.5372 11.543 31.8435 11.7085C32.0158 11.7976 32.0988 11.9377 32.1498 12.065C32.437 12.7779 31.7031 13.5163 30.5481 13.5354C30.5672 13.5418 30.5863 13.5418 30.6119 13.5418Z" fill="#FF8800"/>
<path d="M29.4823 26.9221C28.8952 26.3874 28.1231 26.101 27.3318 26.1137L27.4083 24.2104C27.6827 24.2295 27.9508 24.325 28.1677 24.4905C28.3273 24.6433 28.5442 24.726 28.7676 24.726C28.991 24.726 29.2079 24.6433 29.3675 24.4905C29.527 24.3314 29.6164 24.115 29.6164 23.8922C29.6164 23.6694 29.527 23.453 29.3675 23.2938C28.825 22.861 28.1677 22.5936 27.4721 22.5363L27.5487 20.6394C27.5487 20.4166 27.4594 20.2002 27.2998 20.0411C27.1403 19.8819 26.9233 19.7928 26.7 19.7928C26.4766 19.7928 26.2597 19.8819 26.1001 20.0411C25.9406 20.2002 25.8512 20.4166 25.8512 20.6394C25.8257 21.3142 25.8002 21.9889 25.7747 22.6573C25.4045 22.7464 25.0408 22.8737 24.6962 23.0392C23.222 23.7585 22.3605 25.7636 23.5666 27.1195C24.1282 27.756 24.8302 27.8706 25.5641 27.8642L25.4811 29.9394H25.4492H25.3854H25.3407C25.2322 29.9203 25.1237 29.9012 25.0152 29.8693L24.8302 29.8184C24.8302 29.8184 24.6834 29.7611 24.6579 29.7611C24.5813 29.7293 24.5111 29.6911 24.4409 29.6466C24.3962 29.6211 24.3835 29.6147 24.3835 29.6211L24.3388 29.5702C24.2941 29.532 24.2558 29.4938 24.2176 29.4492C24.3197 29.5829 24.1346 29.2201 24.1856 29.3665C24.1218 29.1564 23.9751 28.9718 23.7836 28.8636C23.5922 28.7554 23.3624 28.7236 23.1455 28.7745C23.037 28.8063 22.9349 28.8509 22.8519 28.9209C22.7626 28.9909 22.6924 29.0737 22.6349 29.1691C22.5775 29.2646 22.5456 29.3728 22.5328 29.481C22.5201 29.5893 22.5264 29.7038 22.5583 29.8121C22.9987 31.0597 24.1984 31.4989 25.4173 31.6326L25.3471 33.364C25.3471 33.5868 25.4364 33.8032 25.596 33.9623C25.7555 34.1215 25.9725 34.2106 26.1958 34.2106C26.4192 34.2106 26.6362 34.1215 26.7957 33.9623C26.9552 33.8032 27.0446 33.5868 27.0446 33.364C27.0701 32.7847 27.0956 32.2118 27.1148 31.6389C28.5251 31.4607 29.961 30.7414 30.2417 29.2264C30.3247 28.8063 30.2928 28.3798 30.1652 27.9724C30.0248 27.5714 29.795 27.2086 29.4823 26.9221ZM25.2514 26.1901C25.3854 26.2092 24.9578 26.1074 25.0663 26.1519C24.9578 26.1201 24.8557 26.0501 24.7855 25.9609C24.7345 25.8846 24.7025 25.7954 24.6834 25.7063C24.6643 25.6172 24.6706 25.5217 24.6898 25.4326C24.7153 25.2862 24.7664 25.1462 24.8493 25.0252C24.9259 24.8979 25.0344 24.7961 25.1556 24.7133C25.3152 24.5924 25.5002 24.4969 25.6917 24.4332L25.6215 26.2092C25.5002 26.2092 25.379 26.2028 25.2514 26.1901ZM28.4421 29.201C28.2762 29.4492 28.0465 29.6466 27.7721 29.7611C27.5806 29.8439 27.3828 29.9075 27.1786 29.9394L27.2616 27.7878C27.3828 27.7878 27.5041 27.7878 27.6189 27.8133C28.0146 27.8642 28.5187 28.208 28.5889 28.609C28.6081 28.7108 28.6017 28.819 28.5825 28.9209C28.557 29.0164 28.506 29.1182 28.4421 29.201Z" fill="#FF8800"/>
</g>
<path d="M6.01262 38.9557C5.92396 39.7586 6.30697 40.5689 7.05565 40.8768C11.4329 42.6767 12.0781 37.8546 19.6007 41.9336C23.3012 43.9401 27.1761 44.6203 30.3021 43.3713C38.9092 38.853 42.1397 34.603 40.2613 29.9123C36.3962 34.8938 31.9904 38.6418 29.1965 37.8846C26.4026 37.1274 33.5472 34.527 30.955 32.1486C28.3627 29.7702 26.6743 32.6204 22.882 34.0306C17.2192 36.1363 11.0666 35.1484 8.19943 34.4756C7.34441 34.275 6.46567 34.8525 6.36951 35.7234L6.01262 38.9557Z" fill="#00D4D3"/>
<defs>
<clipPath id="clip0_1076_15130">
<rect width="30.0189" height="34.6981" fill="white" transform="translate(11.397 4)"/>
</clipPath>
</defs>
</svg>
