<svg width="48" height="48" viewBox="0 0 48 48" fill="none" xmlns="http://www.w3.org/2000/svg">
<g clip-path="url(#clip0_1548_20678)">
<path d="M39.4312 39.6425C39.8974 39.6425 40.4569 39.6425 40.9231 39.4564C42.2284 38.898 42.6946 37.2228 42.9744 35.7338C44.1865 28.5677 44.373 21.2154 43.3473 14.0494C43.0676 12.188 42.6946 10.1406 41.2028 9.20992C40.4569 8.74459 39.6177 8.65152 38.7786 8.55846C28.1492 7.25553 23.6737 8.65152 12.951 8.18619C11.366 8.09313 9.68764 8.00006 8.1958 8.65152C6.70396 9.20992 5.30536 10.5128 5.11888 12.188H5.30536C4.83916 13.2118 4.65268 14.4216 4.55944 15.6315C3.90676 22.7045 3.81352 26.5202 4.27972 33.5932C4.37296 34.8031 4.4662 36.013 5.02564 37.0367C6.331 39.3633 9.31468 39.6425 11.9254 39.6425C23.1142 39.6425 28.1492 39.6425 39.4312 39.6425Z" fill="#D5C6FF"/>
<path d="M16.8671 30.1499C16.7739 30.2429 16.6806 30.336 16.6806 30.4291C16.6806 30.5221 16.6806 30.7082 16.6806 30.8013C16.8671 31.5458 17.5198 31.6389 18.0792 31.732C19.3846 31.825 20.7832 31.9181 22.0886 31.5458C22.275 31.4528 22.4615 31.3597 22.648 31.1736C22.8345 30.9874 22.9277 30.5221 22.8345 30.336C22.7412 30.1499 22.648 30.1499 22.4615 30.0568C20.69 29.5915 18.8252 29.6845 16.9604 30.1499" fill="white"/>
<path d="M15.1888 29.033C15.1888 28.94 15.1888 28.8469 15.0956 28.7538C15.0023 28.6608 14.8159 28.5677 14.7226 28.5677C13.4173 28.3816 12.8578 28.4746 11.7389 28.6608C11.366 28.5677 11.0863 28.7538 11.0863 29.1261V29.2192C11.0863 29.2192 11.0863 29.3122 10.993 29.3122C10.8998 29.5914 10.8998 29.8706 10.8998 30.1498C10.8998 30.9874 10.993 31.732 10.993 32.5695C10.993 32.7557 11.1795 32.8487 11.366 32.8487C11.4592 32.8487 11.4592 32.8487 11.5525 32.8487C12.7646 32.9418 13.6037 32.9418 14.7226 32.8487C14.8159 32.8487 14.8159 32.8487 14.9091 32.8487C15.0023 32.8487 15.0023 32.8487 15.0956 32.7557C15.1888 32.6626 15.2821 32.5695 15.2821 32.4765C15.3753 31.1736 15.3753 30.2429 15.1888 29.033ZM12.1119 31.825C12.1119 31.0805 12.1119 30.429 12.1119 29.6845C12.8578 29.7776 13.5105 29.7776 14.2564 29.6845C14.1632 30.6152 14.2564 31.1736 14.3497 31.825C13.324 31.6389 12.8578 31.732 12.1119 31.825Z" fill="white"/>
<path d="M31.6923 30.1499C31.599 30.2429 31.5058 30.336 31.5058 30.4291C31.5058 30.5221 31.5058 30.7082 31.5058 30.8013C31.6923 31.5458 32.345 31.6389 32.9044 31.732C34.2098 31.825 35.6084 31.9181 36.9137 31.5458C37.1002 31.4528 37.2867 31.3597 37.4732 31.1736C37.6596 30.9874 37.7529 30.5221 37.6596 30.336C37.5664 30.1499 37.4732 30.1499 37.2867 30.0568C35.5151 29.5915 33.6503 29.6845 31.7855 30.1499" fill="white"/>
<path d="M30.014 29.033C30.014 28.94 30.014 28.8469 29.9207 28.7538C29.8275 28.6608 29.641 28.5677 29.5478 28.5677C28.2424 28.3816 27.683 28.4746 26.5641 28.6608C26.1911 28.5677 25.9114 28.7538 25.9114 29.1261V29.2192C25.9114 29.2192 25.9114 29.3122 25.8182 29.3122C25.7249 29.5914 25.7249 29.8706 25.7249 30.1498C25.7249 30.9874 25.8182 31.732 25.8182 32.5695C25.8182 32.7557 26.0046 32.8487 26.1911 32.8487C26.2844 32.8487 26.2844 32.8487 26.3776 32.8487C27.5897 32.9418 28.4289 32.9418 29.5478 32.8487C29.641 32.8487 29.641 32.8487 29.7342 32.8487C29.8275 32.8487 29.8275 32.8487 29.9207 32.7557C30.014 32.6626 30.1072 32.5695 30.1072 32.4765C30.2004 31.1736 30.2004 30.2429 30.014 29.033ZM26.937 31.825C26.937 31.0805 26.937 30.429 26.937 29.6845C27.683 29.7776 28.3356 29.7776 29.0816 29.6845C28.9883 30.6152 29.0816 31.1736 29.1748 31.825C28.1492 31.6389 27.683 31.732 26.937 31.825Z" fill="white"/>
<path d="M10.8998 16.0038C10.62 16.1899 10.3403 16.3761 10.2471 16.5622C10.2471 16.7483 10.4336 16.9345 10.62 17.1206C12.0186 18.2374 14.6294 18.3304 16.7739 18.3304C22.3683 18.3304 28.0559 18.3304 33.3706 17.3998C34.1165 17.3067 34.9557 17.1206 35.5151 16.7483C36.0746 16.3761 36.2611 15.7246 35.7016 15.3523C35.3287 15.0731 34.7692 15.0731 34.2098 14.9801C26.4708 14.6078 18.7319 14.887 11.2727 15.9107" fill="#8C17FF"/>
<path d="M23.8601 21.0293H15.5618C13.0443 20.7501 11.0862 21.3085 10.8065 23.2629C10.8065 23.449 10.8065 23.7282 10.8998 23.9144C11.0862 24.2866 11.6457 24.2866 12.1119 24.2866C14.5361 24.1936 16.9604 24.1005 19.4778 24.0074C21.1562 23.9144 22.8345 23.9144 24.2331 23.1698C24.6993 22.8906 25.2587 22.5184 25.1655 21.96C25.0723 21.4016 24.4196 21.2155 23.8601 21.0293Z" fill="#8C17FF"/>
</g>
<defs>
<clipPath id="clip0_1548_20678">
<rect width="40" height="31.7355" fill="white" transform="translate(4 8)"/>
</clipPath>
</defs>
</svg>
