<svg width="48" height="48" viewBox="0 0 48 48" fill="none" xmlns="http://www.w3.org/2000/svg">
<path d="M39.4762 44H9V4H29.9524L39.4762 13.5238V44Z" fill="#F1C40F"/>
<path d="M38.0476 14.4763H29V5.42871L38.0476 14.4763Z" fill="#F2F1E0"/>
<path d="M32.3994 22.9629C33.4318 22.9629 34.2165 23.2515 34.7527 23.8286C35.2889 24.4057 35.5937 25.2353 35.667 26.3153H33.7461C33.7289 25.6467 33.6261 25.1857 33.4365 24.9315C33.248 24.6781 32.9013 24.5515 32.3984 24.5515C31.8861 24.5515 31.5242 24.7305 31.3108 25.0877C31.0984 25.4467 30.9851 26.0353 30.9727 26.8553V28.6457C30.9727 29.5877 31.0775 30.2343 31.2889 30.5857C31.5004 30.9372 31.8613 31.1134 32.3727 31.1134C32.8765 31.1134 33.2232 30.9905 33.4146 30.7457C33.6046 30.5019 33.712 30.063 33.7397 29.4291L32.8099 29.4286V27.8096H35.6575V29.4286L35.6518 29.4277L35.6382 29.6591C35.5578 30.6196 35.2592 31.3561 34.7423 31.8686C34.1823 32.4238 33.3927 32.7019 32.3727 32.7019C31.3013 32.7019 30.4794 32.3496 29.9089 31.6448C29.3384 30.9391 29.0527 29.9334 29.0527 28.6267V27.0315C29.0527 25.7296 29.348 24.7257 29.9384 24.02C30.5289 23.3153 31.3489 22.9629 32.3994 22.9629Z" fill="#694200"/>
<path d="M18.1559 30.0848C18.1559 29.6991 18.0568 29.4067 17.8597 29.2095C17.6616 29.0114 17.3025 28.8067 16.7816 28.5943C15.8311 28.2343 15.1473 27.8124 14.7311 27.3276C14.314 26.8438 14.1063 26.2724 14.1063 25.6124C14.1063 24.8133 14.3892 24.1724 14.9559 23.6886C15.5225 23.2038 16.2416 22.9619 17.114 22.9619C17.6959 22.9619 18.214 23.0848 18.6701 23.3295C19.1263 23.5752 19.4768 23.921 19.7216 24.3686C19.9663 24.8162 20.0892 25.3238 20.0892 25.8924H18.1816C18.1816 25.4495 18.0863 25.1124 17.8987 24.88C17.7092 24.6486 17.4368 24.5324 17.0816 24.5324C16.7473 24.5324 16.4863 24.6314 16.3006 24.8286C16.114 25.0267 16.0206 25.2924 16.0206 25.6267C16.0206 25.8867 16.1244 26.1229 16.333 26.3333C16.5416 26.5438 16.9101 26.761 17.4397 26.9876C18.3644 27.3219 19.0359 27.7314 19.454 28.2181C19.873 28.7048 20.0825 29.3229 20.0825 30.0733C20.0825 30.8981 19.8206 31.5429 19.2949 32.0067C18.7692 32.4705 18.0549 32.7029 17.153 32.7029C16.5406 32.7029 15.9835 32.5772 15.4797 32.3257C14.9759 32.0743 14.5825 31.7133 14.2978 31.2448C14.013 30.7762 13.8711 30.2229 13.8711 29.5848H15.792C15.792 30.1314 15.8987 30.5286 16.1111 30.7762C16.3235 31.0238 16.6711 31.1476 17.153 31.1476C17.8216 31.1457 18.1559 30.7924 18.1559 30.0848Z" fill="#694200"/>
<path d="M24.6841 29.968L26.2793 23.0928H28.4146L25.6803 32.5718H23.6879L20.9727 23.0928H23.0955L24.6841 29.968Z" fill="#694200"/>
</svg>
