<svg width="25" height="24" viewBox="0 0 25 24" fill="none" xmlns="http://www.w3.org/2000/svg">
<path fill-rule="evenodd" clip-rule="evenodd" d="M5.14463 7.28926C6.54959 7.28926 7.78926 6.13223 7.78926 4.64463C7.78926 3.23967 6.63223 2 5.14463 2C3.73967 2 2.5 3.15702 2.5 4.64463C2.5 6.13223 3.65702 7.28926 5.14463 7.28926ZM5.14463 14.6447C6.54959 14.6447 7.78926 13.4876 7.78926 12C7.78926 10.5951 6.63223 9.35541 5.14463 9.35541C3.73967 9.35541 2.5 10.5124 2.5 12C2.5 13.4876 3.65702 14.6447 5.14463 14.6447ZM7.78926 19.2727C7.78926 20.7603 6.54959 21.9174 5.14463 21.9174C3.65702 21.9174 2.5 20.7603 2.5 19.2727C2.5 17.7851 3.73967 16.6281 5.14463 16.6281C6.63223 16.6281 7.78926 17.8678 7.78926 19.2727ZM12.4175 2.08264C11.0125 2.08264 9.77283 3.23967 9.77283 4.72727C9.77283 6.13223 10.9299 7.3719 12.4175 7.3719C13.8224 7.3719 15.0621 6.21487 15.0621 4.72727C15.0621 3.23967 13.8224 2.08264 12.4175 2.08264ZM9.77283 12C9.77283 10.5124 11.0125 9.35541 12.4175 9.35541C13.8224 9.35541 15.0621 10.5951 15.0621 12C15.0621 13.4876 13.8224 14.6447 12.4175 14.6447C10.9299 14.6447 9.77283 13.405 9.77283 12ZM12.4175 16.7108C11.0125 16.7108 9.77283 17.8678 9.77283 19.3554C9.77283 20.7603 10.9299 22 12.4175 22C13.8224 22 15.0621 20.843 15.0621 19.3554C15.0621 17.8678 13.8224 16.7108 12.4175 16.7108ZM17.0454 4.72727C17.0454 3.23967 18.2851 2.08264 19.69 2.08264C21.1776 2.08264 22.3347 3.23967 22.3347 4.72727C22.3347 6.21487 21.095 7.3719 19.69 7.3719C18.2024 7.3719 17.0454 6.13223 17.0454 4.72727ZM19.69 9.35541C18.2851 9.35541 17.0454 10.5124 17.0454 12C17.0454 13.405 18.2024 14.6447 19.69 14.6447C21.095 14.6447 22.3347 13.4876 22.3347 12C22.3347 10.5951 21.1776 9.35541 19.69 9.35541ZM17.0454 19.3554C17.0454 17.8678 18.2851 16.7108 19.69 16.7108C21.1776 16.7108 22.3347 17.8678 22.3347 19.3554C22.3347 20.843 21.095 22 19.69 22C18.2024 22 17.0454 20.7603 17.0454 19.3554Z" fill="#B9B1C4"/>
</svg>
